<svg xmlns="http://www.w3.org/2000/svg" viewBox="0 0 651.64 1167.08"><defs><style>.cls-1{fill:#9b9b9b;}.cls-2{fill:#8b8b8b;}.cls-3{fill:#838383;}.cls-4{fill:#7b7b7b;}.cls-5{fill:#737373;}.cls-6{fill:#6b6b6b;}.cls-7{fill:#636363;}.cls-8{fill:#5b5b5b;}.cls-9{fill:#515151;}.cls-10{fill:#4d4d4d;}.cls-11{fill:#494949;}.cls-12{fill:#454545;}.cls-13{fill:#414141;}.cls-14{fill:#3d3d3d;}.cls-15{fill:#393939;}.cls-16{fill:#353535;}.cls-17{fill:#313131;}.cls-18{fill:#2d2d2d;}.cls-19{fill:#292929;}.cls-20{fill:#252525;}.cls-21{fill:#212121;}.cls-22{fill:#1d1d1d;}.cls-23{fill:#191919;}.cls-24{fill:#151515;}.cls-25{fill:#111;}.cls-26{fill:#0d0d0d;}.cls-27{fill:#0a0a0a;}.cls-28{fill:#080808;}.cls-29{fill:#060606;}.cls-30{fill:#040404;}.cls-31{fill:#020202;}</style></defs><title>Black</title><g id="Layer_2" data-name="Layer 2"><g id="Layer_2-2" data-name="Layer 2"><g id="g21"><path id="path89" class="cls-1" d="M192.29,1166.37c.23-.37-3.95-9.22-9.28-19.69-18.51-36.35-25-53.52-30.43-80.52-8-39.6-7.39-68.63,1.87-96.47,6.17-18.52,14.64-31.47,33.14-50.63,3.23-3.35,5.88-6.6,5.88-7.22a1.88,1.88,0,0,1,1.5-1.52c1.37-.36,1.5-1,1.51-7.78,0-4.06-.69-19.36-1.53-34l-1.55-26.62-5.68-26.63L182,788.66l-13.87-22.5c-7.63-12.38-23.4-36.85-35.06-54.38s-22.05-33.57-23.1-35.65-5.6-8.49-10.12-14.25c-36.94-47.07-68.07-99-82.61-137.82-6.8-18.15-14.8-48.81-16.63-63.75-.47-3.9-.67-27.72-.51-63.57l.25-57.33L3.2,325.16c11-55.73,13.39-66.44,19.65-87.75,16.06-54.7,40.78-104.47,70-141,9.08-11.34,25.73-28.07,36.46-36.64C166.58,30.05,209.77,13.3,267.72,6.11c39-4.85,103.2-7.58,124.34-5.29,84.29,9.13,155.32,58,203.25,139.84,28.17,48.1,41.37,97.35,53.55,199.87,2.35,19.74,2.37,20.18,2.66,63.55.39,57,.47,56.25-10,93.16-9.84,34.67-21,70.17-28.45,90-4.43,11.89-19.82,51.44-23.14,59.45-1.78,4.31-2.72,7.76-2.72,10,0,3-.15,3.33-1.13,2.52-1.47-1.22-2.38,1-5.89,14.25-3.36,12.77-4.16,17.41-8.77,51-3.56,26-8.2,75.65-8.21,87.86,0,2.73,1.17,15.05,2.6,27.37s2.95,25.6,3.38,29.52c.92,8.41-.91,6.29,20.93,24.32,15.44,12.75,21.74,19.31,28.69,29.9C627.77,937.12,636.9,959,639,971.69c.46,2.87,1.34,7.24,1.93,9.72a105.44,105.44,0,0,1,2.54,24.51c0,11.12-1,18.38-3.85,27.49-4.42,14.07-6.76,22.46-12,42.87-8.39,32.84-8.06,31.87-16.47,49.08-4.25,8.71-4.85,9.51-16,21.42-6.4,6.81-12.72,13.75-14,15.43a16.44,16.44,0,0,1-4.27,3.94C574.5,1167.23,191.62,1167.45,192.29,1166.37ZM338.66,493.54c9.86-2.48,16.23-6.17,24-13.87,5.63-5.57,7.38-7.89,9.93-13.14,4.31-8.88,5.46-13.83,5.46-23.62s-1.15-14.75-5.46-23.63c-4.15-8.55-14-18.5-22.39-22.7a52.76,52.76,0,0,0-48,0c-8.42,4.2-18.24,14.15-22.39,22.7-4.31,8.88-5.46,13.84-5.46,23.63s1.15,14.74,5.46,23.62c4.15,8.55,14,18.51,22.39,22.71a53.09,53.09,0,0,0,36.44,4.3Z"/><path id="path85" class="cls-2" d="M192.46,1166.56c.55-.22-3.26-8.54-10.19-22.25-19.75-39.12-26.46-58.29-31.51-90-6.37-40-2.69-75,10.52-100.27,6.2-11.84,14.59-22.75,29.2-38,3.59-3.74,6-6.94,6.32-8.34s-.39-16.92-1.47-34.81l-2-32.53-5.59-25.86c-3.08-14.22-6.2-26.88-6.94-28.13-9.35-15.76-31.42-50.46-47.89-75.27-11.31-17-21.23-32.54-22-34.4-2.19-5.11-6.12-11.11-16-24.37C49.67,591.35,22,540.67,11.67,499.84c-4.95-19.59-10-49.92-11.06-66.68C-.69,412.85.21,367,2.19,352.53c4.1-29.75,12.36-74.89,17.37-94.87,15.82-63.15,42.93-120.9,75.78-161.45,6.3-7.78,21.93-23.73,30.25-30.89C165,31.49,212.26,13.34,279,6.45c29.39-3,83.37-6,98.18-5.34a244.35,244.35,0,0,1,120.07,37c15.76,9.74,29.08,20.33,44.54,35.4A281.22,281.22,0,0,1,573,108.91c42,56.34,61.6,114.43,71.88,213.25,2.92,28.06,3.7,41,4.28,70.87.48,24.55-.59,64.38-2,75.87-2,16.3-29,102.79-41.2,132.28-3.27,7.9-8.12,20.25-10.77,27.42s-6.07,15.9-7.6,19.37c-2.84,6.43-9.21,29.8-11.26,41.3-3.64,20.37-8.91,64.29-11.22,93.39l-2.5,31.5,2.12,17.25c1.17,9.49,2.66,22.82,3.32,29.62s1.37,13.25,1.59,14.32c.29,1.42,4.53,5.31,15.48,14.23,8.3,6.76,17.14,14.32,19.66,16.81,5.45,5.38,13.42,15.91,17.74,23.45,7.42,12.95,14.81,32.41,16.44,43.32.49,3.3,1.58,8.87,2.41,12.37,1.33,5.63,1.46,8.18,1.15,21.75-.38,16.76-.2,15.75-6.76,37.13-1.9,6.19-4.84,16.28-6.53,22.42-3,11.07-11.25,32.14-16.3,41.86-2.07,4-6.87,9.56-22.89,26.63-11.15,11.87-22.16,23.87-24.46,26.65L561.4,1167,376.5,1167c-101.7,0-184.51-.22-184-.41Zm149-662.85a63.77,63.77,0,0,0,46.32-48,77.33,77.33,0,0,0,1-12.75c0-18.39-6.37-32.93-20.11-45.93a62.09,62.09,0,0,0-84.88,0c-13.74,13-20.11,27.54-20.11,45.93s6.37,32.92,20.11,45.93a62,62,0,0,0,57.69,14.87Z"/><path id="path83" class="cls-3" d="M192.5,1166.43c.66-.42.09-2.1-2.09-6.17q-28.31-52.85-35.53-85c-11.38-50.77-9.18-90.1,6.81-121.35,5-9.83,10.15-16.9,20.21-27.88,4.09-4.47,9.28-10.16,11.53-12.65l4.09-4.52-2.06-34.4-2.05-34.39-5.58-25.62c-3.55-16.28-6.16-26.61-7.17-28.33-8.31-14.23-30.27-48.81-46.71-73.55-11.08-16.68-21.41-32.88-22.93-36-3.9-7.94-8.26-14.78-15.78-24.79C49,590.32,18.47,532.78,9.84,490.89,7.52,479.65,3,445.14,1.46,427.53c-1.68-19.88-.6-51.6,2.62-76.5.61-4.74,1.64-13.18,2.28-18.75,9.37-81.16,35-156,73.44-214.12a233.39,233.39,0,0,1,25.72-33c39.62-43,88.12-66.65,157-76.44C299.54,3.45,363.37.2,388.09,2.32c58.51,5,110.06,28.92,153.63,71.21,29.57,28.7,55.73,67.53,71.68,106.4,23.9,58.23,36.73,147,35,242.35-.71,40.45-1.41,49-5.09,62.63-10.89,40.21-28.62,94.46-39.1,119.7-2.68,6.43-6.89,17.23-9.37,24s-5.84,15.34-7.48,19c-8.62,19.54-17.8,75.25-22.66,137.63l-2.26,28.88,1.82,14.25c1,7.83,2.52,21.33,3.38,30s1.72,16.44,1.9,17.29,3.63,4.22,7.65,7.5c15.87,12.94,28,23.78,32.54,29a133.69,133.69,0,0,1,17.6,27.25c4.43,9,10.42,26.2,11.2,32.22.27,2.06,1.22,7.12,2.12,11.25,1.37,6.29,1.64,9.91,1.65,22.5,0,16.61-.2,17.94-5.19,33.37-1.8,5.57-4.17,13.17-5.28,16.88A284,284,0,0,1,616,1095.13c-3.52,7-1.83,5.09-35.87,41.53-11.17,12-21.65,23.27-23.29,25.12a24.54,24.54,0,0,1-4.77,4.32c-1.43.74-39.11.93-181.15.92-98.65,0-178.95-.27-178.45-.59ZM339.36,508.88c25.89-5.35,45.26-23.84,52.21-49.85,2.41-9,2.41-23.21,0-32.25-8.23-30.79-34.12-51-65.35-51s-57.12,20.21-65.35,51c-2.41,9-2.41,23.21,0,32.25,6.91,25.83,26.09,44.27,51.85,49.83,6.61,1.43,19.78,1.44,26.64,0Z"/><path id="path81" class="cls-4" d="M192.51,1166.43c.65-.41-2.29-6.91-10.3-22.77-19.37-38.34-25.6-56.1-31.1-88.58-6.78-40.07-3.32-74.09,10.21-100.43,6.13-11.93,11.84-19.4,28.21-36.88l7.69-8.21v-4.13c0-2.27-.85-17.93-1.89-34.8L193.43,840l-5.61-25.82-5.61-25.83-14.57-23.54c-8-13-23.49-37-34.39-53.45s-21-32.43-22.54-35.53c-4.36-9-7-13.12-18.39-28.43C46.85,586.24,18.58,532.1,9.84,489.41,1.16,447,0,385.1,6.77,330,14.64,266.38,32,207.08,57,157.91a334.88,334.88,0,0,1,22.81-39C121.72,56,175.77,22.41,255,10.23c21.16-3.26,41.87-5,88.5-7.64,38.77-2.16,62.1,0,91.08,8.3,21.15,6.08,45.37,16.87,63,28.1C547,70.37,589.73,122.46,613,179.66,631.34,225,642,278.77,647,351c1.58,23.13,1.8,86.43.37,107.63-1,15.28-2.43,21.48-12.48,55.06-11.26,37.62-21.65,68.35-29.69,87.83-2.81,6.82-7.3,18.3-10,25.5s-6.26,16.44-8,20.51c-3.39,8.05-9.79,32.77-11.65,45-4.69,30.91-8.76,65.55-10.82,92l-2.31,29.69,2.22,17.94c1.23,9.87,2.78,23.84,3.45,31.06.93,10,1.54,13.47,2.49,14.53.69.77,7.5,6.49,15.13,12.72,16.13,13.17,22.8,19.62,29.13,28.16,9.81,13.23,19.57,34.61,22.62,49.59.89,4.33,2.29,11.08,3.13,15a117.48,117.48,0,0,1,1.92,18.43c.48,13.41-.58,20.53-5.16,34.66s-17.1,44.49-21.22,51.53c-1,1.8-15.16,17.4-31.35,34.67s-32.13,34.35-35.42,37.94l-6,6.52H367.5c-96.75,0-175.5-.27-175-.59ZM344.59,513a73.26,73.26,0,0,0,51.87-52.35c2.7-10.45,2.7-25.12,0-35.56a73.2,73.2,0,0,0-52.24-52.46c-9.23-2.5-26.77-2.5-36,0A73.2,73.2,0,0,0,256,425.13c-1.57,6.09-1.88,9-1.88,17.78,0,12.59,1.9,21.25,6.93,31.54,9.3,19,26.87,33.47,46.81,38.47,9.07,2.27,9,2.27,20.25,2,7.78-.19,12.06-.67,16.5-1.87Z"/><path id="path79" class="cls-5" d="M192.52,1166.42c.67-.42-2.14-6.68-10.18-22.67-19.32-38.41-26.1-57.68-31.19-88.7-5.59-34-4.35-60.11,4-85.36,6.15-18.48,15.52-32.5,35.34-52.91l6.68-6.88v-4.83c0-2.66-.84-18.47-1.87-35.13l-1.87-30.3-5.61-25.73-5.6-25.73-14-22.64c-7.71-12.45-23.36-36.81-34.78-54.13s-21.21-32.68-21.75-34.13c-1.85-4.95-7.13-13.56-14-22.84C49,589,21,537.16,11.33,495c-2.65-11.58-6.09-36.09-7.75-55.12-1.19-13.72-1.18-62,0-76.5a785.68,785.68,0,0,1,11.84-83.25C34,189.51,75,109.51,124.84,66.81c43.66-37.43,93-55,171.38-61.12,64.34-5,89.56-5,116.34,0,74.56,14,139.89,63.26,182.32,137.57,15.24,26.69,25.39,52.46,33.84,85.88,14.23,56.27,21.93,139.7,19.33,209.25-1,28.12-1.61,33.2-5,45.75-11.73,43.07-28.76,95.3-39.51,121.17-2.67,6.42-6.62,16.55-8.78,22.5s-5.57,14.71-7.57,19.45c-4.52,10.69-10.29,34.75-13,54.38-5.44,38.94-7.29,55.16-9.41,82.56l-2.34,30.07L564.67,833c1.84,15,4.53,40.63,4.55,43.22,0,.83,4.53,4.78,18.37,16,14.78,12,20.18,17.21,26.17,25.21,11.89,15.85,22.64,40.61,24.85,57.23.28,2.06,1,5.74,1.6,8.17,1.93,7.71,2.4,15.37,1.71,27.58-.71,12.47-1.42,15.46-6.48,27.25-1.24,2.89-4.42,10.31-7.05,16.5-10.1,23.69-6.54,19.08-52.23,67.7-22.38,23.82-41.18,43.72-41.79,44.24-.86.74-36.33.93-171.93.92-94,0-170.43-.27-169.92-.6Zm146.54-647a77.58,77.58,0,0,0,41.42-131.88c-21-20.46-51.52-27.52-78.77-18.23a77.26,77.26,0,0,0-48.83,48.46c-12.65,36.32,4,77.35,38.31,94.27,15.52,7.66,31.89,10.18,47.87,7.38Z"/><path id="path77" class="cls-6" d="M192.7,1166.31c.93-.59.59-1.65-2.1-6.55-12.37-22.53-24.34-49-30.52-67.53-8.33-24.91-13.78-65.93-11.74-88.24,1.64-18,5.46-32.9,11.81-46.15,6.86-14.31,14.15-24.18,29.73-40.25l7.34-7.57v-5.93c0-3.26-.83-19.09-1.83-35.18l-1.83-29.25L188,814l-5.6-25.71L167.15,763.7c-8.36-13.5-23.63-37.2-33.93-52.67s-20-30.83-21.51-34.15c-3.69-8-8.86-16.24-17-27.06C49.24,589.38,19.14,532.51,10.59,490.89c-7.08-34.5-9.42-89.58-5.74-135,6.71-82.79,27.88-155.74,63-217.22C95.51,90.33,130.44,56,173.59,34.92c25.65-12.56,53-20.47,88.13-25.45C300.63,3.94,372.6.36,393.34,2.93c38,4.68,71.53,16.33,103.29,35.84a332.45,332.45,0,0,1,29.46,21.31c6.45,5.28,28.46,27.45,35.23,35.48A329.49,329.49,0,0,1,604,160.94c21.73,43.34,35.65,103,41.35,177,2.8,36.49,3.27,87.23,1.12,122.83-.72,11.87-1.07,13.94-4.58,26.74-10.58,38.62-27.47,90.55-36.84,113.25-3.32,8.05-8.14,20.37-10.71,27.38s-5.95,15.62-7.51,19.12c-2.58,5.84-8.54,28.5-10.77,41-3.2,17.91-9.33,69.35-11.4,95.73l-2.34,29.84,2.34,19.28c1.29,10.61,2.71,23.84,3.16,29.41,1.16,14.24,1.32,14.7,6.81,19.13,27.25,22,33.66,28.07,41.83,39.75,10.43,14.91,19.76,37.37,21.82,52.53.45,3.28,1.3,7.82,1.9,10.09s1.29,9.19,1.53,15.38c.4,10.47.29,11.75-1.5,18.51-1.91,7.2-8.47,23.26-14.76,36.17a50.74,50.74,0,0,1-7.42,11.24c-2.28,2.5-21.37,23-42.41,45.44s-41.09,44-44.57,47.83-6.77,6.93-7.31,6.93a.9.9,0,0,0-1,.75c0,.5-55.68.75-165.56.74-102.81,0-165.15-.28-164.46-.71Zm153.39-643c19.64-5.26,37-17.08,47.58-32.41,11.47-16.59,17.23-37.65,15.16-55.44-2.41-20.76-11.19-38.72-25.66-52.49A83.59,83.59,0,0,0,345,362.21c-10.28-2.6-27.22-2.6-37.5,0A83.59,83.59,0,0,0,269.27,383c-14.47,13.77-23.25,31.73-25.66,52.49-1.57,13.45,1.12,28.26,7.65,42.12a78.77,78.77,0,0,0,18,25.25c12.54,11.93,27.05,19,46.45,22.49,1,.19,6.77.22,12.75.07,8.49-.21,12.36-.67,17.62-2.08Z"/><path id="path75" class="cls-7" d="M192.67,1166.33c.87-.55-1.15-5.1-10.55-23.8-16.14-32.12-22.94-49.59-27.27-70.11-8.8-41.7-8.58-75.3.68-103,6-18,15.66-32.51,34.73-52.22l7-7.19v-6.68c0-3.68-.84-19.68-1.84-35.56l-1.83-28.87-5.3-24.38c-2.91-13.4-5.65-25.22-6.1-26.25-1.81-4.23-30-48.85-48.55-76.87-10.92-16.5-20.51-31.69-21.3-33.75q-3.44-8.94-14.6-24C49,588.25,21.11,536.71,11.31,494.28c-7.08-30.63-10.07-89-6.83-133.12,7-95,32.91-177.74,76.11-242.63,19.2-28.85,42-52.1,68.25-69.52C179.08,28.92,215.91,16.1,262.47,9.46c35-5,98.28-8.35,123-6.52A214.9,214.9,0,0,1,424.84,9c45.29,11,81.45,31.38,116.92,66a308.54,308.54,0,0,1,53.11,69c11.37,19.95,18.07,35.19,25.63,58.38C634.17,244.29,642,289.75,646.2,351c1.62,23.74,1.83,85,.37,107.5-.93,14.33-1.11,15.41-5.07,29.63-10.44,37.5-26.6,88.13-33.67,105.5-1.34,3.3-4.31,10.55-6.59,16.12s-6,15.19-8.25,21.38-5.29,14-6.75,17.25c-4.24,9.6-9.76,34.91-13.3,61-1.66,12.24-3.69,27.15-4.51,33.13s-2.54,24.38-3.83,40.88l-2.35,30,2.4,20.25c1.32,11.14,2.83,25.46,3.37,31.83l1,11.58,2.55,2.18c1.41,1.2,4.92,4.06,7.8,6.37,19.84,15.84,31.18,27,38.4,37.88,8.66,13,17.9,35.38,19.77,47.8.46,3.09,1.4,8,2.09,10.86,2.86,12,.93,30.13-4.73,44.45-6.26,15.84-4.45,13.65-64,77.16-30,32-55.34,59.36-56.28,60.75l-1.71,2.51H352.25c-96.39,0-160.23-.28-159.58-.69ZM348.09,528.91c18.88-4.83,34-14.48,47-30,6.86-8.21,14.28-22.65,17.21-33.52,1.89-7,2-8.55,2-22.5s-.14-15.53-2-22.5c-2.93-10.88-10.35-25.31-17.21-33.52-12.92-15.44-27.87-25-47-30.05-8.17-2.16-9.61-2.31-21.87-2.31s-13.7.15-21.87,2.31c-19.09,5-34.05,14.61-47,30.05-6.86,8.21-14.28,22.64-17.22,33.52-1.88,7-2,8.55-2,22.5s.14,15.52,2,22.5c2.94,10.87,10.36,25.31,17.22,33.52,12.47,14.9,27.69,24.87,45,29.49,10.63,2.83,14.88,3.31,26.42,3,8.58-.23,12.11-.69,19.25-2.52Z"/><path id="path73" class="cls-8" d="M192.53,1166.54c1.57-.64,1.09-2.3-2.55-8.7-5.49-9.69-17.56-34.49-22-45.18a243.3,243.3,0,0,1-16.47-58.13c-7.47-47-1.36-85.66,17.77-112.41,4.67-6.53,9.32-12,20.22-23.6l7.69-8.21,0-7.58c0-4.16-.85-20.4-1.86-36.07l-1.83-28.5L188,813l-5.57-25.12-14.88-24c-8.18-13.2-23.23-36.57-33.44-51.94-17.51-26.35-21.4-32.66-22.68-36.8-1.13-3.63-7.69-13.75-17.61-27.14C49,587.59,20.85,534.82,11.31,493.53,5.9,470.12,2.42,425.81,3.25,391c2.27-95,24.45-181.29,64.62-251.59C95.76,90.63,128,58.41,170.59,36.75c26.21-13.32,53.48-21.4,89.63-26.53,42.41-6,114.14-9.24,137.62-6.16C444.69,10.19,486.57,28.48,525,59.58c8.06,6.53,25.34,23.51,33.22,32.66A341.14,341.14,0,0,1,604,161.69c18.19,36.3,31,85.9,38,147,1.4,12.24,2.23,21.39,4.67,51,1.16,14.08,1.14,80.11,0,98.12-.92,14.29-1.12,15.45-5,29.39-13.38,48-28,92.57-38.42,117.36-2.87,6.81-7,17.27-9.15,23.25s-5.41,14.32-7.23,18.53a86.21,86.21,0,0,0-4.37,12.75c-.6,2.8-2.28,10.1-3.74,16.2-2.46,10.25-5.62,31.21-10.49,69.52-1,8.05-2.79,27-3.91,42.05l-2,27.42,2.41,19.83c1.32,10.91,2.78,24.89,3.25,31.08l.85,11.25,3.07,3c1.69,1.65,9.61,8.39,17.61,15,18.15,15,24.77,22.43,33.45,37.83A130.47,130.47,0,0,1,638.25,979c1.23,9.33,1.33,12.25.67,18.75-1,9.87-3.88,21.61-6.51,26.62-1.46,2.77-19.68,22.74-61.59,67.5l-65,69.39-5.42,5.81L346,1167c-84.94,0-154-.23-153.49-.43ZM341.71,536.23c18.74-2.85,36.87-12.34,51.32-26.85,18.34-18.42,27.68-40.85,27.68-66.47s-9.34-48.05-27.68-66.47a93.54,93.54,0,0,0-51.7-27c-6.42-1.09-23.8-1.09-30.22,0a93.54,93.54,0,0,0-51.7,27c-18.34,18.42-27.68,40.85-27.68,66.47a92.55,92.55,0,0,0,26.1,65c7.29,7.56,11.78,11.17,20.29,16.28,18.78,11.29,40.89,15.47,63.59,12Z"/><path id="path69" class="cls-9" d="M192.53,1166.54a1.65,1.65,0,0,0,.94-1.42c0-.57-2.73-6.2-6.06-12.5-17.16-32.49-27.2-56.93-31.8-77.48C144.36,1025,146.5,985,162.07,954.65c6.23-12.12,12.83-20.71,28.3-36.83l7.77-8.1-.45-6.16c-.24-3.38-1.18-19-2.08-34.65L194,840.41l-5.72-26.25-5.72-26.25-14.88-24c-8.19-13.2-23.49-37-34-52.88-11.77-17.74-20.07-31-21.53-34.51-3.24-7.65-6.74-13.16-18.14-28.52-44.67-60.2-72.42-112-81.9-153-2.15-9.28-5-30-7-50.62-2.4-25.2-2.39-59.71,0-85.5,2.23-23.92,3.54-35.14,5.74-49.25,11.59-74.34,35-138.13,69.74-190.38A246.52,246.52,0,0,1,111,81.51c19.52-20.08,37.3-33.36,59.63-44.54C207.57,18.46,244,10.09,306.72,5.7c61.34-4.29,77.68-4.22,103.12.43A246.68,246.68,0,0,1,524.22,59.57c8.76,7.24,26.61,24.78,34.42,33.84,20.88,24.17,41.26,57.26,53.15,86.25C620.33,200.5,628.43,229,634.07,258c10,51.77,14.53,115.36,12.51,177.25C646.07,451,645.35,466.66,645,470c-1.74,16.22-28.9,103-41.85,133.76-2.87,6.81-7,17.27-9.15,23.25s-5.45,14.42-7.28,18.75c-3.06,7.2-6.19,19.06-10.39,39.38-.6,2.89-3,19.09-5.23,36-3.93,29.12-8.6,78.64-8.61,91.32,0,2.78,1,13.41,2.2,23.62s2.59,23.28,3,29.06,1,11,1.16,11.62,2.41,2.82,5,4.88C602,904.53,605.65,908,614.71,919.91c6.26,8.24,14.6,25.08,18.22,36.79a83.75,83.75,0,0,1,2.41,13.08c.95,9.26.35,27.78-1,31.71-.69,2-21.79,25-74.93,81.71-40.68,43.43-74.88,80.06-76,81.4l-2,2.43L336.47,1167C256.79,1166.94,192,1166.74,192.53,1166.54ZM346.62,543.81c42.53-9,73.89-41.46,81.14-84,2.45-14.34,1.22-33.24-3.05-46.82-11.71-37.24-39.91-62.8-78.47-71.13-10.88-2.34-29.16-2.34-40,0-43.42,9.38-74.42,41.57-81.63,84.78-1.69,10.16-1.19,28.86,1,38.46,9.85,42.44,42.49,72.72,86,79.77,9.07,1.47,25.33,1,35-1.09Z"/><path id="path67" class="cls-10" d="M192.53,1166.54a1.61,1.61,0,0,0,.94-1.37c0-.54-4.2-9.2-9.33-19.25-20.56-40.25-27.7-60.8-33-95.07-5.81-37.25-2-71,11-96.2,6.22-12.1,12.84-20.72,28.21-36.74,4.23-4.41,7.69-8.63,7.69-9.38s-.85-16-1.89-34l-1.89-32.62L188.43,815l-5.76-26.9L167.73,764c-8.21-13.25-23.63-37.26-34.26-53.35s-20.15-31.29-21.14-33.76c-2.71-6.76-7.36-14.29-15.88-25.71C49.4,588.1,21.73,536.89,12.06,495,6.59,471.35,3.16,427.14,4,390.78c2.13-94.64,24.07-181.47,63.14-249.85,13.25-23.18,27.58-42.66,43.47-59.08,20.23-20.9,37.88-33.83,63-46.16C209,18.33,246.29,9.93,306.72,5.7c53.41-3.73,69.83-4,90.1-1.5C468.22,13,530.55,52,576.68,116.69a341.24,341.24,0,0,1,35.26,64.1c24.74,60.18,37.82,156.28,34.63,254.44-.51,15.77-1.23,31.38-1.59,34.68-.41,3.67-3.72,16.63-8.54,33.37-12.22,42.5-24.12,78.29-33.68,101.3-2.67,6.42-6.62,16.55-8.78,22.5s-5.55,14.71-7.54,19.45C580.81,660,576.2,682.28,571,721.16c-4.76,35.7-9.42,89.39-8.45,97.42,3.26,27.12,4.49,38.42,5.16,47.31.43,5.77,1.2,11.07,1.7,11.78s6,5.44,12.23,10.51c17.36,14.14,20.57,17,25.52,22.7a119.91,119.91,0,0,1,24.72,43.9c2.72,8.75,3.43,36.34,1.05,40.61-.61,1.1-36.86,40.16-80.56,86.82L472.93,1167,332.26,1167c-77.36,0-140.24-.23-139.73-.43ZM347.8,546.88c20.87-4.47,37.77-13.68,53.13-28.94a104.35,104.35,0,0,0,30-57.4c1.5-8.4,1.5-26.87,0-35.27A107.66,107.66,0,0,0,346,338.53c-9.27-1.87-30.29-1.87-39.56,0a107.37,107.37,0,0,0-76.57,59.89c-6.53,13.81-9.48,27.65-9.48,44.49s3,30.68,9.48,44.48a106.88,106.88,0,0,0,80.22,60.51C319.4,549.4,338.44,548.89,347.8,546.88ZM624.45,363c-.3-3.23-.21-5.25.24-5.25,2,0,2.36-3.19,1.5-15.08-.79-11-.76-12.13.42-13.44a3.13,3.13,0,0,0,.67-3.51,29.76,29.76,0,0,1-.8-5.47c-.2-3.65-.51-6.47-2.14-19.5-.91-7.34-1.14-9.49-1.2-11.25a5.48,5.48,0,0,0-.77-2.74,3.7,3.7,0,0,1-.25-2.73c.27-1.07.11-2.09-.37-2.38a1.84,1.84,0,0,1-.37-2,2.86,2.86,0,0,0-.31-2.4c-.67-.81-1-2.47-1.83-10.62a6.61,6.61,0,0,0-.76-2.44,1.8,1.8,0,0,1-.12-1.72,1.79,1.79,0,0,0-.39-1.84,1.84,1.84,0,0,1-.38-1.88,1.8,1.8,0,0,0-.37-1.87,1.84,1.84,0,0,1-.38-1.88,1.63,1.63,0,0,0-.2-1.72,4.32,4.32,0,0,1-.8-2c-.3-4.09-1.59-8.38-2.86-9.53-1.64-1.49-2.06-2.66-5.53-15.4-2-7.21-2.65-8.82-3.79-8.82-1,0-1.64-.91-2.29-3.18a16.08,16.08,0,0,0-1.5-3.88c-1-1.11-2.11,3-1.64,5.89.53,3.25-.3,3.51-1.37.42-.43-1.23-1.07-2.25-1.41-2.25-1.44,0-1.46,3.38-.07,12.12,2.25,14.12,2.32,14.86,1.51,16.64-1.77,3.88,10.08,83.8,12.93,87.24a1.67,1.67,0,0,1,.27,1.77c-.29.45.08,1.49.82,2.31s1.82,4.34,2.64,9.14c3.28,19.33,3.07,18.53,4.84,18.53.61,0,1.09-.73,1.11-1.68,0-1.67,0-1.67,1.09.18a8.5,8.5,0,0,1,1.1,2.77c.06,1.8,1.52,4.73,2.37,4.73.63,0,.74-1.46.39-5.25Z"/><path id="path65" class="cls-11" d="M192.53,1166.54c1.64-.67,1-2.91-2.54-9.35-16-28.89-29.63-61.62-34.36-82.68-11.24-50.12-9.12-89.56,6.44-119.86,6.22-12.1,12.84-20.72,28.21-36.74,5.22-5.44,7.69-8.57,7.7-9.76,0-1-.85-16.42-1.91-34.37l-1.91-32.62-5.67-26.25c-3.12-14.44-6-26.89-6.43-27.67-3.5-6.54-31.47-50.68-47.1-74.33-18.64-28.21-21.64-33.08-22.87-37.13-1.09-3.59-8-14.4-15.61-24.6C51.43,591.24,21.54,535.94,12.06,495,5,464.42,2,405.18,5.23,360.41,12.11,266,37.7,184.3,80.6,119.66c42.72-64.37,97.69-97.59,181.12-109.44,21-3,58.94-5.9,99.37-7.63,29.47-1.26,64.12,4.75,94.07,16.31C486.79,31.11,515,49.67,541.74,75.76c24.39,23.84,44.37,51.78,61.59,86.15,27.86,55.6,43.62,147.32,43.38,252.5-.08,37.81-1.16,55.75-4,65.88-1.15,4.19-2.47,9.16-2.92,11-4.09,17-26.37,86.61-32.76,102.32-1.34,3.3-4.31,10.56-6.6,16.14s-5.74,14.52-7.67,19.87-5,13.28-6.78,17.61c-7.87,18.94-16.91,75.62-21.64,135.67L562,814l2.45,20.34c1.35,11.19,2.8,25.08,3.22,30.87a115,115,0,0,0,1.23,11.71c.24.64,2.68,3,5.41,5.21,30.74,25.07,37.16,31.65,46.32,47.55S633,958.3,632.89,976.8a88.63,88.63,0,0,1-.56,11.45c-.39,1.28-153.7,166-163.83,176l-2.84,2.81-137-.06c-75.37,0-136.61-.23-136.1-.43ZM335.79,551.28c39-4.12,71.44-26.36,87.93-60.37,8.07-16.65,10.85-28.92,10.85-48,0-14.94-.93-21.24-4.91-33.43a108.57,108.57,0,0,0-69.89-70c-27-8.76-54.6-6.84-80.74,5.61-31.18,14.85-52.82,43-59.86,77.89-1.81,9-1.81,30.9,0,39.86,7,34.88,28.68,63,59.86,77.89,18.8,8.95,38,12.52,56.76,10.55ZM627.44,424.16c1-.74,2.26-7.74,3-16.36.32-3.65.66-4.46,2.09-5,1.66-.63,1.71-1,2.36-17,.86-21.14.49-47-.88-62-.83-9.06-.88-12.17-.22-13s.65-1.54.08-2.79a3.21,3.21,0,0,1-.13-2.79,3.53,3.53,0,0,0,.2-2.55,25.91,25.91,0,0,1-.69-4.5c-.12-1.65-.39-4.18-.61-5.63s-.56-4-.76-5.62c-1.6-13.11-4.61-27.15-6.15-28.69-.52-.52-1.5-3.56-2.19-6.75-3.35-15.5-11.43-42.07-14-46.19a47.5,47.5,0,0,1-2.77-6.31c-1-2.58-2-4.69-2.3-4.69s-1.68-2.78-3-6.18c-2.95-7.45-3.56-8.37-4.86-7.29-.71.58-1.33.25-2.41-1.31a20.07,20.07,0,0,1-1.92-3.4,1.93,1.93,0,0,0-1.55-1.32c-.59,0-1.77-1.18-2.62-2.62s-2.07-2.63-2.71-2.63-1.73-1.18-2.42-2.62-1.49-2.63-1.78-2.63c-1,0-1.6,4.21-1.81,13.13-.12,5-.48,9.66-.81,10.47-.55,1.35-.69,1.28-1.55-.75s-1-1.67-1,4.17c-.15,29.62,7.36,93.44,16.11,136.86,4.73,23.47,14.25,61.5,19.43,77.62l1.08,3.38,0-3.19c.1-6.16,1.78-3.64,4.63,6.93a53.3,53.3,0,0,0,3,8.61,13,13,0,0,1,1.41,3.39,12.1,12.1,0,0,0,1.64,3.38l1.63,2.63.73-3a8.6,8.6,0,0,1,1.72-3.75Z"/><path id="path63" class="cls-12" d="M193.06,1166c1.31-1,1.17-1.39-2.59-8.06-15.85-28.09-30.05-62.1-34.84-83.45-9.57-42.69-9.47-75.4.32-104.82,6.18-18.55,15-31.84,34.81-52.23l7.46-7.7-2.06-34.67-2.06-34.68-5.6-25.79c-3.07-14.19-6-26.51-6.43-27.38-3.27-6.15-34.28-55.1-49-77.33-16.14-24.41-21.34-33-21.36-35.28,0-1.52-8.77-15.1-15.45-24-45-59.8-74.6-114.72-84.22-156.38C4.94,463.45,2,405.4,5.23,360.41c5.32-73.61,23.29-143,51.8-200,41.52-83,95.76-127.59,176.69-145.31C259.75,9.41,290,6.33,352.91,3c25.08-1.34,44.58.31,68.5,5.82,27.26,6.27,50.27,15.84,75.52,31.41,54.18,33.4,99.8,93.67,122,161.23,1.9,5.77,4,12.52,4.66,15C635,258.81,641.09,297.83,644.69,351c2.24,32.92,1.73,113.86-.78,124.52-1,4.16-4.66,17.22-12.48,44.23-7.58,26.19-20.56,64.32-28.16,82.71-3,7.33-7.4,18.63-9.73,25.12s-5.72,15.26-7.54,19.49a75.27,75.27,0,0,0-4,11.25c-.37,2-2,9.46-3.66,16.68-4.41,19.37-11.49,74.24-14.28,110.64l-2.19,28.52L564,831.42c1.18,9.48,2.51,22,3,27.74,1.6,20.33.5,17.39,9.17,24.52,31.14,25.61,37.94,33.05,47.17,51.6,3.76,7.55,6,15.62,7.46,26.56,1.05,8.06.63,18.82-.85,21.56-.59,1.09-37.69,41.07-82.45,88.83s-82.52,88.29-83.91,90.07c-1.72,2.19-3.12,3.23-4.32,3.23-1,0-1.77.34-1.77.75s-44.8.75-132.89.75c-111.58,0-132.68-.16-131.52-1ZM337.29,554.28C363.93,551.47,386,541,405,522c21.81-21.72,33-48.47,33-79.12s-11.15-57.41-33-79.13A107.34,107.34,0,0,0,374.59,342a111.44,111.44,0,0,0-96.75,0,107.44,107.44,0,0,0-30.41,21.78c-21.82,21.72-33,48.48-33,79.13s11.14,57.4,33,79.12C271.72,546.21,304,557.79,337.29,554.28Zm280.37-80.62c.57-2.27,1.48-2.4,2.56-.38,1.83,3.42,2.48,1.87,3.79-9a60.69,60.69,0,0,1,1.15-7.43c.17-.17.92.25,1.68.94,2.7,2.44,3.36,1.77,3.18-3.26a10.07,10.07,0,0,1,1.58-5.25c3.77-5.89,3.72-5.65,5.59-24a27.47,27.47,0,0,1,1.38-6.37c1.07-2.49,2-21.84,2.72-56.25.51-24.87-3.06-70.72-7.07-90.75-3.86-19.25-7.73-34.91-10.56-42.77-1.8-5-4-11.77-4.9-15a41.3,41.3,0,0,0-2.78-7.72,41.6,41.6,0,0,1-2.88-6.75,61.71,61.71,0,0,0-6.24-13.6,110.4,110.4,0,0,1-5-10c-1.88-4.26-3.5-6.9-4.55-7.38-.89-.41-2.39-2.3-3.31-4.21-2.82-5.79-11.17-15.51-13.92-16.2a6.38,6.38,0,0,1-3.13-2.7c-1.44-2.45-2.84-2.89-3.52-1.12-.86,2.22-2.41,1-5.73-4.52-1.85-3.08-3.78-5.61-4.29-5.61s-1.16.91-1.43,2l-.51,2-1.32-1.63c-2.78-3.44-3.68-1.42-2.11,4.79.67,2.67.63,3.59-.19,4.57-2.24,2.7-1.54,48.38,1.28,83.51a879,879,0,0,0,25.79,152.64C593.28,414.46,608,459,612.07,464a9.88,9.88,0,0,1,2.15,4.74c0,2.57,1.43,6.76,2.31,6.76.36,0,.87-.84,1.13-1.87Z"/><path id="path61" class="cls-13" d="M193.06,1166c1.31-1,1.18-1.36-2.38-7.69-14.55-25.81-28.67-58.74-33.55-78.25-13-52-11.29-93,5.3-125.39,6.56-12.83,13.23-21.59,28.38-37.26l7.46-7.72-2.06-34.65-2.06-34.65-5.57-25.7c-3.06-14.13-6-26.45-6.44-27.38-3.21-6.15-31.89-51.46-47.83-75.55-11-16.67-20-31-21.19-33.94-3.13-7.57-7.56-14.79-16-26.06-46.28-61.67-75.35-115.5-85-157.5C5,463.67,2,405.64,5.24,361.16c6.09-84.13,27.41-159.34,62.63-221C111.77,63.35,168.6,24.58,257.22,11c21.26-3.27,39.4-4.86,80.62-7.09,38.86-2.11,61.87-.47,89.25,6.36,26.08,6.5,51.89,18,76,33.82,21.81,14.35,48.74,40.23,67.15,64.54,14.11,18.62,30.77,47.38,38.61,66.6,3.92,9.62,6.94,17.78,6.68,18s-1.38-2.49-2.71-5.9-3.2-7-4.16-8.07-3-4.82-4.62-8.42a63.81,63.81,0,0,0-5.52-10.05c-1.46-1.93-3.32-4.57-4.15-5.86a84,84,0,0,0-12.45-15.49c-3.54-3.67-6.83-6.68-7.29-6.68s-3-3-5.7-6.61c-4.49-6.12-5.17-6.72-9.09-8.06-2.32-.79-4.55-2-4.94-2.76-1.12-2.09-2.41-1.54-4,1.69-.79,1.65-1.65,3-1.92,3a7.43,7.43,0,0,1-2.15-2.25c-.93-1.25-2.36-2.25-3.24-2.25-1.37,0-1.52.32-1.13,2.44.24,1.34.65,3.13.9,4,.33,1.16,0,1.76-1.37,2.37-1.64.75-2,.55-4.09-2.13l-2.27-3-.56,20.09c-1.09,38.63,1.38,90,6.09,126.59.64,4.95,1.48,11.7,1.87,15s1.07,8,1.49,10.5,1.43,8.55,2.22,13.5,2.14,12.71,3,17.25,1.84,9.94,2.21,12,1,5.27,1.52,7.12,1.47,6.58,2.23,10.5c1.94,10,4.57,20.5,5.36,21.34a4.55,4.55,0,0,1,.67,2.57c0,2.79,2.47,12.84,3.15,12.84.33,0,.6,1.16.6,2.58s.34,2.79.75,3.05a3,3,0,0,1,.75,2.21,48.38,48.38,0,0,0,1.89,8c1,3.45,2.56,8.79,3.38,11.87s1.83,5.93,2.24,6.33a4.11,4.11,0,0,1,.74,2.48,8.12,8.12,0,0,0,.66,3c.37.71,2.43,6.87,4.59,13.67,4,12.75,15.42,44.05,16.5,45.38a46.37,46.37,0,0,1,2.69,5.95l2.08,5.2.82-2.95c.67-2.4,1.2-3,2.87-3.19s2,0,2,1.59c0,7,3.07,9.1,4.66,3.15.49-1.86,1.09-3.38,1.33-3.38a14.4,14.4,0,0,1,2.89,2.25c2.95,2.7,3.7,2.79,4.29.57.25-.93,2.06-3,4-4.62,3.36-2.76,3.64-3.29,5.2-9.64a75.62,75.62,0,0,1,4.33-12.32,37.75,37.75,0,0,0,3.08-8.73,11.19,11.19,0,0,1,1.24-4.18c.46-.57,1.25-4.46,1.77-8.62s1.26-9.61,1.67-12.08c1.72-10.37,2.21-15.45,2.24-23.44,0-4.66.34-8.44.72-8.44s.88-.59,1.1-1.31c.62-2-.22,41.94-1.1,57.19-.85,14.89-1.19,16.49-10.14,47.62C624,545.43,611,584.05,602.39,604.53c-2.87,6.81-7,17.27-9.12,23.25s-5.57,14.79-7.61,19.57-3.69,9.27-3.69,10-1.5,7.95-3.33,16.07c-4.82,21.39-11.7,74.12-14.6,111.79L561.82,814l2.56,21.09c1.4,11.6,2.84,25.79,3.19,31.54l.64,10.45,2.94,2.56c1.62,1.42,9.69,8.23,17.94,15.14C606.52,909.35,610.77,914,618.55,927c5.81,9.72,9.33,21.38,10.76,35.63,1.41,13.91,10.07,3.25-86.11,105.92-46.28,49.41-85.43,91.43-87,93.39s-3.28,3.56-3.79,3.56a.86.86,0,0,0-.94.75c0,.5-43.8.75-129.89.75-109.07,0-129.68-.16-128.52-1ZM346.84,557.18a113.92,113.92,0,0,0,60.81-31.77C417.1,516,422,509.69,427.54,499.7a116.79,116.79,0,0,0-7.71-125.79c-5.7-7.75-19.51-21.08-27.38-26.45-40.49-27.6-92-27.6-132.46,0-7.88,5.37-21.68,18.7-27.38,26.45A116.79,116.79,0,0,0,224.9,499.7c5.53,10,10.44,16.33,19.88,25.71,27.14,26.94,64.29,38.5,102.06,31.77ZM646,390.78c0-2.68.14-3.77.3-2.43a23.32,23.32,0,0,1,0,4.87c-.16,1.34-.3.24-.3-2.44Z"/><path id="path59" class="cls-14" d="M193,1166.06c1.24-.91,1-1.57-3.28-9.57-22.59-42-32.22-68-37.91-102.59-7.93-48.23-1.29-85.9,20.25-114.78a281.32,281.32,0,0,1,22.8-25.93c3.79-3.63,3.7-.64,1.19-41.73l-1.89-31.05-5.67-26.15-5.66-26.14-14.69-23.73c-8.07-13-23.42-37-34.1-53.14-11.36-17.19-20.19-31.35-21.26-34.08-2.64-6.73-7-13.85-15.69-25.39-46.3-61.7-75.35-115.5-85-157.5-1.88-8.13-4.23-24.23-5.65-38.62C-.45,386,6.78,307.32,26.24,240c21.31-73.66,57.62-136.7,99.35-172.47a210.07,210.07,0,0,1,47.25-31.13c41.52-20.38,82.64-28.59,160.5-32,26.53-1.18,50.59-1.16,61.13.06C444.54,10.21,489.34,30.06,528,63.61c14.44,12.53,31.77,31.11,41.06,44,12.57,17.51,16.59,23.64,21.06,32.13,2.59,4.93,2.56,5.46-.09,1.45a96.43,96.43,0,0,0-11.69-13.14,88,88,0,0,1-9.67-11.23,22.67,22.67,0,0,0-5.26-5.31,20.79,20.79,0,0,1-3.89-3,3.29,3.29,0,0,0-1.88-1.23,4.1,4.1,0,0,1-2.15-1.5,4.76,4.76,0,0,0-3.12-1.5A4.52,4.52,0,0,1,549,102c-.88-1.23-1.94-2.25-2.35-2.25s-2.42-1.4-4.46-3.12c-3.39-2.85-3.86-3-5.66-2.22-1.62.74-2.2.69-3.25-.25-2.15-2-3.66-1.42-4.21,1.48a6.36,6.36,0,0,1-1.16,3c-.36.23-.44,1.79-.17,3.48.39,2.49.22,3.26-.9,4.09s-1.66.74-3.75-1.28l-2.36-2.29-.58,9.22a899.57,899.57,0,0,0,.1,101.48c1.56,25.06,4.32,54,6.62,69.37,1.69,11.31,4,26.25,4.87,30.94.42,2.37,1.07,6.09,1.45,8.25,3.78,21.58,12.68,60.1,19.54,84.56,5.82,20.75,17.19,55.37,24.78,75.42,6.53,17.28,11.31,29.08,12,29.58a36.09,36.09,0,0,1,2.63,5.47c1.44,3.42,2.34,4.77,2.75,4.13a4.88,4.88,0,0,0,.63-2.14c0-2,1.81-3.83,3.2-3.3.85.33,1.44,1.71,1.76,4.14.36,2.72,1,4,2.3,4.84a8.6,8.6,0,0,1,2.65,3c1.13,2.46,2.34,2.31,3.37-.42.64-1.69,1.32-2.25,2.77-2.25,2,0,3.59-1.81,4.61-5.25a13.67,13.67,0,0,1,2.33-4,7.5,7.5,0,0,0,1.77-3.59c0-.81,1.1-2.63,2.44-4.05,4.37-4.64,5.81-6.58,5.81-7.85a4.9,4.9,0,0,1,1.76-2.77c1.22-1.07,2.25-3.53,3.4-8.12.91-3.63,2.15-7.3,2.75-8.15a6.77,6.77,0,0,0,1.09-3.27,5.18,5.18,0,0,1,1.42-3.12,11,11,0,0,0,1.93-5.16,22.06,22.06,0,0,1,1.58-5.79,10.58,10.58,0,0,0,1.12-3.66,9.4,9.4,0,0,1,.76-3.1c.94-2,.11,13.84-1,18.37s-9.15,33.79-11.59,42c-10.46,35.23-20.3,64.31-29.24,86.43-3.45,8.56-8.1,20.54-10.32,26.63s-5.25,13.82-6.74,17.19a66.62,66.62,0,0,0-3.78,11.62c-.59,3-2.25,10.57-3.69,16.76-4,17.23-11.24,73.71-14,109.08l-2.23,28.84,2.21,18c2.66,21.61,3.75,33,3.75,39.12,0,3.47.37,5.06,1.52,6.52.83,1.06,7.83,7.16,15.56,13.56s15.3,12.75,16.83,14.11c4.09,3.65,13,15.2,16.31,21.23,4.84,8.73,9.73,27.59,9.76,37.69,0,3.88-.07,4-5.47,9.75-31.89,33.71-172.78,184.68-175.64,188.21l-3.75,4.64-125.58,0c-103.35,0-125.34-.13-124.24-.93ZM346.47,560.61a134.67,134.67,0,0,0,31.28-10.1c41.31-19.4,67.72-61.38,67.72-107.6,0-58.35-41.45-107.49-99.38-117.82-10.24-1.83-29.5-1.83-39.75,0a138.49,138.49,0,0,0-31.66,10.21C233.38,354.71,207,396.68,207,442.91s26.41,88.2,67.71,107.6c12.91,6.07,26,9.68,41.79,11.58,5.13.61,23-.27,30-1.48ZM645.09,449.28c0-1,.17-1.45.38-.93a3,3,0,0,1,0,1.87c-.21.52-.38.09-.38-.94Z"/><path id="path57" class="cls-15" d="M193,1166.06c1.23-.89.62-2.36-8.06-19.31-22.34-43.64-28.23-60.93-33.84-99.38-6.12-41.94-.53-75.56,17.07-102.56,4.55-7,9.42-12.8,21.49-25.7l8.3-8.87V906c0-2.33-.86-18.19-1.91-35.23l-1.91-31-5.62-25.86-5.62-25.86-14-22.58c-7.69-12.41-23-36.29-34.1-53.06-13.19-20-20.77-32.18-22-35.38-2.55-6.76-6.43-12.9-18.36-29C48.67,586.1,21.76,535.68,12.06,493.53,4.94,462.62,2,405.94,5.23,361.16c5.88-81.87,27.92-160,61.9-219.49,7.75-13.57,21.27-33.74,29.33-43.76,32.7-40.65,74.89-67.11,128-80.24,24.5-6.06,44-8.78,80.78-11.24,56.32-3.76,73.1-4,92.49-1.5,34.25,4.49,62,13.92,92.38,31.46,16.22,9.34,34.55,23.4,49.34,37.8,9.54,9.3,26.79,29.12,26.79,30.79a1.68,1.68,0,0,0,1.12,1.28,1.7,1.7,0,0,1,1.13,1.31c0,.48,1,2,2.25,3.34a13.29,13.29,0,0,1,2.25,2.92,5.41,5.41,0,0,0,1.24,1.83c.68.76.93,1.37.54,1.37s-2.48-2.38-4.65-5.29-4.53-5.49-5.23-5.75a17,17,0,0,1-3.94-3.15C558,99.91,548.71,93,547.64,93c-.37,0-1.7-1.26-2.95-2.81a17.54,17.54,0,0,0-5-4.1l-5.27-2.52a7,7,0,0,0-4-.74c-1.13.36-2-.2-3.73-2.23-2.1-2.55-2.45-2.69-5.66-2.34-2.42.27-3.68.06-4.31-.69a2.65,2.65,0,0,0-4.34.21c-.65,1.16-1,1.08-3.77-.84-3.83-2.65-5.73-2.2-5.05,1.18a4.81,4.81,0,0,1-.25,3.2c-.81,1-2,12.34-2.71,25.93-.27,5.16-.6,10.56-.74,12-.63,6.26-.85,61.77-.32,76.09,1,26.14,4.13,64.59,6.73,82.16.4,2.68,1.08,7.75,1.53,11.25,1.33,10.56,6.51,41.09,9.38,55.3a966.33,966.33,0,0,0,40.69,142.33c12.47,33.26,27.29,67.09,30,68.56a4.07,4.07,0,0,1,1.75,3.25c.18,1.85.59,2.44,1.71,2.44s1.85-1,2.87-3.74c1.72-4.65,1.72-4.65,3.4-3.13,1.86,1.68,2.16,1.6,3.5-1,.64-1.23,1.67-2.25,2.27-2.25s1.11-.35,1.11-.77.72-1,1.61-1.37,2.09-1.92,2.83-3.91c.88-2.39,1.69-3.39,2.89-3.56a2.63,2.63,0,0,0,2.13-2.08,4.5,4.5,0,0,1,1.88-2.6,2.58,2.58,0,0,0,1.41-1.76,6.85,6.85,0,0,1,1.5-2.9,7,7,0,0,0,1.5-2.93c0-1.57,7.21-15.44,9.36-18a7.91,7.91,0,0,0,1.89-3.58,7,7,0,0,1,1.74-3.35c.95-1.11,2.35-4.45,3.11-7.43a43.22,43.22,0,0,1,2.41-7.28c1.39-2.5,1.52-3-5,20.25-9.38,33.47-23.41,75.74-31.46,94.79-2.94,7-7.21,17.94-9.47,24.38s-5.58,15.08-7.36,19.21a63.73,63.73,0,0,0-3.77,10.87c-.28,1.86-1.83,9.12-3.44,16.13-4.32,18.81-11.36,73.2-14.25,110.08l-2.28,29.07L564,832.36c1.26,10.2,2.65,24.12,3.08,30.92s1.18,13.11,1.66,14,6.6,6.28,13.61,12c14.76,12,24.94,21.89,29.49,28.61,5.47,8.06,9.7,19.21,12.88,33.89,1.85,8.54,10.25-1.28-96,112.23l-96.38,103L312,1167c-98.62,0-120.09-.14-119-.94Zm153.9-602c53.3-9.11,94-51.64,101.23-105.72,6.08-45.67-15.22-92.09-54.12-117.94-30.73-20.42-71.22-25.77-106.37-14-45.3,15.12-77,53.62-83.35,101.2-6.08,45.67,15.22,92.09,54.12,117.94,12.84,8.54,31.1,15.8,46.52,18.52,11.61,2,30.16,2.06,42,0Z"/><path id="path55" class="cls-16" d="M193.14,1166c1.41-1,1.38-1.21-1.4-6.18-5.78-10.37-19.83-39.16-23.73-48.62-8.13-19.74-11.66-32.29-15.44-55a220,220,0,0,1-3.14-45.14c.49-16.67,2.32-28,6.54-40.68,6.36-19,14.23-30.8,35.35-52.9l6.65-7v-4.76c0-2.61-.85-18.51-1.89-35.32l-1.89-30.56L188.57,814,183,788.11l-14-22.6c-7.68-12.43-22.08-34.92-32-50-23.09-35-22.56-34.21-24-38.59-1.8-5.38-6.44-12.87-15.09-24.41-35.53-47.35-61.15-90.42-75.61-127.12-7.17-18.2-10.57-30.76-13.2-48.75C-1.73,403,4.65,315.42,26.24,240.78,46.42,171,81.17,108.39,118.67,74.15,149,46.49,177,31,217.09,19.65,245.88,11.53,274.82,8,343.84,4.1c44.89-2.53,73.37,1.31,109.5,14.76,22.83,8.5,51.06,25,70.41,41.24,4.24,3.55,26.16,25.11,28.43,28l2.3,2.9-2.19-1.15a30.33,30.33,0,0,1-5.54-4.59c-1.84-1.89-3.91-3.44-4.59-3.44a3.43,3.43,0,0,1-2.24-1.18c-1.62-1.95-7.25-5.57-8.66-5.57a5.24,5.24,0,0,1-2.87-1.46C526.72,72,515.52,66,514.25,66A10.46,10.46,0,0,1,511,64.15,11.12,11.12,0,0,0,504.94,62a22.36,22.36,0,0,1-4.94-.83c-1.46-.62-4.28,1.39-4.28,3.06,0,1.9-1.53,1.85-4.11-.11-3.32-2.53-5.27-2-4.63,1.17.25,1.24.16,2.24-.2,2.24-1,0-1.46,2.65-2.65,15.48-2.36,25.43-3,42.54-2.95,79,.06,56.87,3.42,98.49,12.37,153.38,4.58,28.08,9.58,51.49,14.5,67.87a154.68,154.68,0,0,1,5.6,23.63c1.62,9.1,17.36,59.47,19.58,62.62.72,1,3.07,7.45,5.21,14.25,4.74,15,6.28,19.38,11.16,31.6,9.95,24.89,27.52,62.54,29.81,63.87.56.32,1.38,1.92,1.82,3.56s1.15,3,1.57,3,1.66-2,2.72-4.5,2.16-4.5,2.43-4.5A7.57,7.57,0,0,1,590.1,579c1.75,2.37,4.62,3.06,4.62,1.11,0-.63.81-1.45,1.81-1.83a4.23,4.23,0,0,0,2.3-2.23c.27-.85.82-1.55,1.22-1.55s1.34-1.44,2.09-3.19a14.67,14.67,0,0,1,2.55-4.18,6.76,6.76,0,0,0,1.68-3.23,4.06,4.06,0,0,1,1.56-2.66c.58-.22,2.25-2.86,3.69-5.87s3.13-5.87,3.74-6.38a3,3,0,0,0,1.11-1.67,10.69,10.69,0,0,1,2.25-3.31c1.24-1.41,2.25-3.18,2.25-3.93a6.51,6.51,0,0,1,1.41-3.17,23.91,23.91,0,0,0,2.71-6.44c.72-2.55,2-5.25,2.82-6,1.81-1.62,2.27-3.54-3.94,16.65-6.81,22.1-14.59,45.09-18.5,54.61-5.49,13.37-9.09,22.61-13.36,34.26-2.18,6-5.19,13.62-6.67,17a63,63,0,0,0-3.51,10.13c-.44,2.21-2.13,9.93-3.75,17.15-4.39,19.59-11.31,73.29-14.2,110.19L561.66,814,564,832.85c1.28,10.34,2.74,24.65,3.24,31.78l.91,13,3.35,2.85c1.84,1.58,5.54,4.62,8.22,6.77,14.61,11.71,24.81,21.41,28.89,27.49a92.93,92.93,0,0,1,12,27.13c2.19,8.42,2.28,10.48.55,12.95S432.54,1157,426.64,1162.72l-4.46,4.31H306.93c-99.92,0-115-.14-113.79-1.07ZM345,567.3a120.13,120.13,0,0,0,37.12-11.86c35.64-17.71,60-49.86,68-89.78,1.41-7.06,1.7-10.92,1.7-22.75,0-16.16-1.34-24.9-6-39.25-14.55-44.6-53.58-77.6-100.82-85.25a140.14,140.14,0,0,0-37.5,0,124.58,124.58,0,0,0-37.13,12c-35.63,17.7-60,49.86-68,89.78-2.45,12.23-2.45,33.27,0,45.5,7.83,39,31.87,71.3,66.2,89,24.25,12.49,49.38,16.65,76.44,12.67Z"/><path id="path53" class="cls-17" d="M193.14,1166c1.41-1,1.38-1.21-1.39-6.18-16.43-29.62-30.95-64-35.37-83.76-12.92-57.75-8.28-103.18,13.68-133.9,5.12-7.15,10.4-13.27,20.22-23.4l7.69-7.94v-5.27c0-2.9-.84-18.91-1.87-35.57l-1.87-30.3-5.62-25.8L183,788l-14.94-24.1c-8.22-13.26-23.55-37.15-34.07-53.1-11.28-17.1-19.79-30.79-20.74-33.34-2.51-6.77-6.83-13.6-19.1-30.22-30.08-40.72-49.48-72.21-64.5-104.71-14-30.31-19.7-51.8-23.23-87.66-6.8-69.06.42-147,19.83-214.13,13.15-45.43,30.94-84.87,54.31-120.37C90.89,104.7,98.8,94.78,111,82.26c42.94-44.2,92.1-65.72,168-73.56,28.4-2.93,83.87-5.94,98.2-5.34C420.93,5.22,459.46,17.41,498,41.57c12.85,8.06,40.41,30.44,34,27.6-5.54-2.46-6.85-3.21-7.22-4.18-.23-.6-1.92-1.76-3.74-2.57a12.7,12.7,0,0,1-3.84-2.3,2.17,2.17,0,0,0-1.67-.84,7.67,7.67,0,0,1-3.14-1.35A35,35,0,0,0,507,55.22c-1.86-.75-4.09-1.7-5-2.11a5.24,5.24,0,0,0-3.22-.22c-1.14.36-2.69-.18-5.29-1.84-3.42-2.2-3.8-2.28-5.41-1.23s-2,1-6.07-1.53c-3.4-2.08-4.56-2.47-5.38-1.79-.65.54-2.08.68-3.73.37-2.08-.39-2.68-.26-2.68.59a4.49,4.49,0,0,1-1.53,2.47,3.13,3.13,0,0,0-1.05,3.55c.35,1.6.12,2.42-.9,3.16s-1.79.78-4.26-.48a9.61,9.61,0,0,0-3.13-1.24c-.27.3-2.38,21.79-3.36,34.36-3.52,44.83-3.37,101,.38,147.75,1.59,19.83,5.38,53.74,6.81,61,.23,1.14,2.06,4,4.08,6.46,4.84,5.79,9.91,18.09,7.46,18.09-1.19,0-.94,1.09,2.54,11.14,1.81,5.22,4,12.09,4.87,15.27a142.94,142.94,0,0,0,5.38,14.63A232.25,232.25,0,0,1,498,394.91c.75,2.89,4.22,14.36,7.72,25.5s8.94,29.09,12.07,39.89,6.51,21.95,7.51,24.75c4,11.27,6.59,21.57,7.44,29.48a15.51,15.51,0,0,0,.62,3c.23.62,1,3.66,1.75,6.75a68.36,68.36,0,0,0,2.3,7.88c.52,1.24,1.49,3.48,2.14,5a14.92,14.92,0,0,1,1.19,3.62c0,1.41,3,12.13,4.18,14.83.57,1.34,1.38,2.43,1.8,2.43,2.24,0,6,15.19,6,24.21V589l5.78,11.14c3.18,6.12,6,10.88,6.25,10.58a17.72,17.72,0,0,0,1.49-3.19A9.38,9.38,0,0,1,568,604.4c1.43-1,3.46.87,3.46,3.13a3.15,3.15,0,0,0,1.66,3.09,12.6,12.6,0,0,1,3,2.46l1.36,1.58,1.2-1.69a4.09,4.09,0,0,1,2.86-1.69c1.36,0,2-.94,3.7-5.2s2.51-5.44,4.76-6.61a6.88,6.88,0,0,0,3.77-4.54,10,10,0,0,1,3.42-4.81c3.69-2.6,6.68-6.84,9.52-13.52.48-1.14,1.17-2.07,1.52-2.07.74,0,5.61-9.86,6.34-12.85a14.13,14.13,0,0,1,2.66-4.5l2.17-2.52-1,3.37c-3.17,10.51-12.22,35.75-16.51,46.08-2.73,6.57-6.85,17.2-9.16,23.62s-5.63,15.08-7.39,19.23a67.45,67.45,0,0,0-3.73,10.88c-.3,1.82-1.85,9.13-3.45,16.22-4.43,19.66-11.34,73.26-14.21,110.24l-2.32,29.89L564,832.92c1.27,10.31,2.69,24.48,3.16,31.49l.86,12.75,2.69,2.57c1.47,1.41,4.4,3.94,6.49,5.62,6.89,5.53,17.81,15,22.16,19.18,8.49,8.21,19.41,30.09,19.41,38.88,0,2.94-1.78,4.89-102.05,112-56.12,59.95-102.95,109.56-104.06,110.26-1.86,1.16-10.41,1.26-111.47,1.31-94.9,0-109.26-.09-108-1Zm143.2-593.71c62.37-5.88,110.48-51.74,118.5-113,8.77-66.86-36.48-130-102.76-143.44a125.19,125.19,0,0,0-51.72,0c-66.28,13.42-111.53,76.58-102.77,143.44,7.94,60.57,56.16,107,117.21,112.91a87.24,87.24,0,0,0,21.54,0Z"/><path id="path51" class="cls-18" d="M193.14,1166c1.41-1,1.36-1.25-1.77-6.94-6.26-11.34-18.63-36.71-22.61-46.35-13.79-33.4-20.43-68.44-19.33-102,.71-21.44,4.17-36.88,11.82-52.78,7.08-14.71,13-22.71,29-39.17l7.72-7.94v-5.94c0-3.26-.84-19.26-1.85-35.56l-1.84-29.62L189,815.28c-2.91-13.4-5.6-25.3-6-26.43-1.17-3.48-27.71-45.78-48.4-77.16q-19.62-29.75-21.34-34.5c-2.36-6.47-7.26-14.18-19.47-30.66C48.84,585.9,21.72,534.89,12.05,492.78c-5.32-23.19-8.91-68.21-8-101.25C6.73,285.86,33.74,190.78,81.34,119.28,110.92,74.85,148.82,44,194.47,27.08,231.34,13.44,264,8.48,345.7,4.08c33.69-1.82,51.55-.5,76.89,5.68,26.05,6.35,51.67,16.91,70.13,28.89,2.68,1.74,6.32,4.06,8.09,5.17a35.46,35.46,0,0,1,4.82,3.62c1.45,1.46,1.47,1.55.16,1.05a48.6,48.6,0,0,0-5.2-1.39A20.14,20.14,0,0,1,494.94,45a15,15,0,0,0-4.87-1.82,33,33,0,0,1-7.65-3c-2.58-1.39-5.16-2.34-5.76-2.11a3.8,3.8,0,0,1-2.59-.4,3.33,3.33,0,0,0-3.32,0c-1.47.67-2.4.53-4.89-.75-3.92-2-5.2-2-6.89.12-1.28,1.57-1.54,1.62-3.87.66-4.43-1.83-6.06-1.54-6.78,1.22-.35,1.34-1,2.43-1.41,2.43s-.57,1-.28,2.55c.63,3.37-1.08,4.48-4.63,3-5-2.1-4.52-3.43-6.25,16.21-.49,5.57-1.08,10.63-1.32,11.25a8.87,8.87,0,0,0-.27,3.08c.08,1.08-.4,8.17-1.07,15.75s-1.23,16.82-1.23,20.52-.19,7-.42,7.4-.51,5.1-.63,10.52-.43,16.39-.68,24.38c-.28,8.61-.18,14.86.24,15.37s.69,5.92.69,12.11.38,17.66.85,25.5,1,17,1.22,20.25.54,8,.77,10.5.57,7,.75,10.12c.4,7,1.89,25.1,2.06,25.16s2.08,1.68,4.46,3.67c4.76,4,7.85,9.45,6.74,11.93-.41.93,0,3.12,1.07,6.39a33,33,0,0,1,1.72,6.86c0,1.91,2.37,5.68,8,12.89,2.63,3.36,8.52,16.56,8.51,19.08,0,.36,2.51,5.71,5.58,11.9a154.85,154.85,0,0,1,7.48,17.41c1,3.38,2.21,6.76,2.59,7.5,4.12,7.85,17.87,50,30.52,93.59,6.87,23.65,7.57,26.35,9.69,37.5,1,5.36,2.54,11.94,3.37,14.62a108.27,108.27,0,0,1,2.69,14,145.34,145.34,0,0,0,2.66,14.62c.81,3,2,8.05,2.62,11.14a29.54,29.54,0,0,0,2.4,7.5c.91,1.38,1.27,3.76,1.36,9,.16,10.1,1.37,18.74,3.11,22.18.82,1.62,2.4,5.48,3.5,8.57s2.67,6.14,3.48,6.76c2.15,1.66,5.17,10.85,5.18,15.81s.49,5.68,2.32,3.46,3.85-1,4.78,3.1c.39,1.72,1.05,3.12,1.47,3.12s1.85,1.07,3.2,2.37l2.44,2.37,2-4.61c1.76-4.07,2.2-4.56,3.71-4.18,2.7.68,4.58-.86,6-4.93.92-2.56,1.77-3.77,2.66-3.77,2.17,0,6.5-5.33,8.23-10.12.89-2.47,2.2-5,2.9-5.65a13.89,13.89,0,0,0,2.34-3.09c3.81-7,4.54-8.14,5.18-8.14.4,0,.93-.82,1.18-1.83a5.94,5.94,0,0,1,2.2-3,8.41,8.41,0,0,0,2.63-3.84c.49-1.48,1-2.54,1.24-2.34s-.31,2-1.13,4-3,7.35-4.87,11.89-5.63,14.49-8.36,22.12-6.29,16.93-7.89,20.66A80.39,80.39,0,0,0,582,655.56c-4.7,20.36-7.41,35.8-10.91,62.19-5.13,38.64-5.23,39.59-7.57,70.53l-2,25.88,2.34,19.07c1.29,10.48,2.71,24.66,3.15,31.5.63,9.57,1.1,12.75,2,13.84.67.78,5.11,4.63,9.85,8.54,10.54,8.71,17,14.86,21.74,20.83,4.53,5.64,11.44,18.58,13.52,25.32,1.52,4.92,1.52,5.14.22,6.85-.75,1-47.67,51.18-104.29,111.59s-103.86,111-105,112.55l-2.07,2.73-105.7,0c-92.33,0-105.52-.11-104.25-1.06Zm155.2-591.39A133.73,133.73,0,0,0,456,411.5a136,136,0,0,0-41.5-68.75A133.51,133.51,0,1,0,286.27,570.29a187.34,187.34,0,0,0,29.82,6c6.22.68,23.58-.26,32.25-1.75Z"/><path id="path49" class="cls-19" d="M193.14,1166c1.42-1.06,1.38-1.23-1.41-6.57C165,1108.26,158.51,1091,152.6,1055.62c-5.06-30.33-4.26-59.19,2.25-81.71a122,122,0,0,1,6.05-15.32c6.86-14.31,14.15-24.18,29.73-40.25l7.34-7.57v-6.3c0-3.47-.83-19.47-1.83-35.56l-1.81-29.25L189,814.91c-2.93-13.61-5.68-25.59-6.11-26.62-1.7-4-29.62-48.35-48.17-76.51-13.52-20.51-20.14-31.24-21.51-34.87-2.54-6.76-6.48-13.1-16-25.77Q30.14,561.92,13.89,499.38c-3.14-12.06-5-24.79-7.68-51.37-1.74-17.48-2-23.48-2-46s.27-28.72,2-47.25c5.49-57.42,12.54-92.59,27.37-136.5C49.27,171.92,71,130.34,95.66,99.41c7.88-9.87,28.17-30.34,37.06-37.4,34.56-27.42,74.81-43.35,129-51,38.84-5.52,110.36-9.09,130.87-6.53a273.85,273.85,0,0,1,59.63,14.47c7.06,2.55,26.52,11.8,28.87,13.73,1.5,1.22,1.5,1.22,0,.49a29.28,29.28,0,0,0-6.38-1.28,34.93,34.93,0,0,1-8.12-2,10.25,10.25,0,0,0-5.71-.94c-1.67.31-3.64-.07-6.3-1.21-3.67-1.58-3.94-1.6-5.3-.37s-1.64,1.22-5.65-.28c-3.17-1.19-4.57-1.38-5.66-.8s-2.6.45-5.68-.45L428,24.62l-1.75,2.14a8.13,8.13,0,0,0-1.78,3.09c0,1.14-1.74,1.18-5.57.12-2.41-.67-3.11-.61-4.11.39s-1,1.46-.26,2.7.7,1.83-.51,3.55c-1.53,2.17-2.16,6.43-4.2,28.34a1035.79,1035.79,0,0,0-4.13,121.84c1,36.35,3.48,70.94,5.25,74.24a6.38,6.38,0,0,1,.38,3.75c-.7,3.17.91,5.53,6,8.82,4.38,2.83,4.55,3.07,6.19,8.54.93,3.09,2.36,6.27,3.18,7.07a51.4,51.4,0,0,0,7.16,6.15,17.64,17.64,0,0,1,4.33,5.61,33.73,33.73,0,0,0,5.45,7.36,31.69,31.69,0,0,1,5.13,6.7c4.56,9,8.32,15.58,10.24,18a24.3,24.3,0,0,1,3.29,6.18,61.16,61.16,0,0,0,4.15,8.67c3.17,5.5,9.52,21.3,14.23,35.42,1.58,4.75,4,11.5,5.29,15,3,8,14.07,40.35,15.49,45.38.58,2.06,1.72,6.11,2.54,9,3,10.58,6.16,22.79,9.07,34.87,1.63,6.81,3.48,14.4,4.1,16.88s1.28,5.34,1.45,6.37c.36,2.09,2.27,10.76,3.39,15.38.4,1.65,1.35,7.58,2.11,13.18s1.76,10.89,2.22,11.74a11.47,11.47,0,0,1,.81,4.44,108.08,108.08,0,0,0,2.18,16.76c2.15,10.84,2.63,14.6,3.06,24,.26,5.57.74,10.56,1.07,11.09,1,1.61,1.84,13.76,1.24,18.16-.58,4.22.6,11.18,2.75,16.24a14.6,14.6,0,0,1,1,2.94,5.21,5.21,0,0,0,1.3,2c1,1.15,1.37,3.4,1.7,11.31.34,8.35.65,10.27,2,12.38l1.59,2.49,2.46-3.06c2.63-3.26,4.14-3.78,5.54-1.87a5.17,5.17,0,0,0,3.42,1.31c2.41.12,2.67-.12,4.67-4.26,1.29-2.67,2.72-4.55,3.64-4.79s2.33-2,3.36-4,2.29-3.66,2.83-3.66c1.27,0,4.51-3.5,6-6.52a9.58,9.58,0,0,1,2.15-3c1.27-.81,4.8-6.12,5.75-8.66.42-1.14,1.11-2.07,1.52-2.07s1.27-1,1.91-2.25c1.51-2.91,3.76-3.11,3-.26-.59,2.36-5,13.84-7.65,20a42.6,42.6,0,0,0-2.55,9c-.36,2.57-1.86,9.85-3.32,16.18-4.12,17.8-11.15,72.6-14,109.08L561.55,814l2.36,19.61c2.46,20.41,4.1,40.64,3.39,41.8s1.24,3.26,7.2,8.24c11.77,9.83,18.68,16.94,26.33,27.07,3.47,4.6,8.84,15.29,9.35,18.61.4,2.61-.48,3.57-102.22,112.18-56.44,60.25-105.45,112.64-108.9,116.43s-7.31,7.39-8.56,8c-2,1-14.51,1.13-100.54,1.13s-98.1-.13-96.82-1.08ZM349.81,578.32a137.52,137.52,0,0,0,0-270.89c-12.78-2.33-34.4-2.33-47.18,0-66.08,12-113.71,68.79-113.71,135.48,0,70.35,52,128.19,123.05,136.85C320.68,580.82,339.58,580.1,349.81,578.32ZM485,35.6c-2.91-1.57-2.58-2.12.38-.62s3.32,1.81,2.37,1.77A10.43,10.43,0,0,1,485,35.6Z"/><path id="path47" class="cls-20" d="M193.26,1166.05l1.66-.92-3-5.61c-19.23-36.09-31-64-35.55-84.26C145.1,1025,147.24,985,162.82,954.65c6.21-12.09,13.11-21.08,28-36.45l7.45-7.7-.17-6.92c-.1-3.81-1-19.92-2-35.8l-1.8-28.87L189,814.53c-2.91-13.4-5.77-25.43-6.36-26.73-2.16-4.75-32.2-52.41-49.57-78.64-11.89-18-18.43-28.55-19.52-31.61-2.38-6.72-5.58-11.94-15.32-25C51.64,590.15,22.65,536.92,13.11,496.23,5.74,464.84,2.64,405.7,6,360.41c7-94.7,32.47-176.1,75.38-240.75,41.53-62.57,95.43-95.79,175.12-107.92,20.89-3.18,40.72-4.91,81-7.09,42.42-2.29,68.25.06,97.65,8.89,10.59,3.18,27.42,9.65,25.25,9.71a13.68,13.68,0,0,1-3.93-1.1,17,17,0,0,0-5.9-1,16.32,16.32,0,0,1-5.31-.74,14.24,14.24,0,0,0-4.39-.84,36.06,36.06,0,0,1-6.8-1.17c-3.67-.95-5-1-6.72-.26s-3.08.7-6.34,0c-3.89-.87-4.25-.82-5.87.69s-2.09,1.55-5.74.89c-4.62-.84-5.41-.45-6.79,3.36l-.93,2.57-5.26-.21-5.27-.21-.41,3a15.5,15.5,0,0,1-.88,3.75c-.61,1-2.55,16.42-4,31.5a1107.05,1107.05,0,0,0-4.09,123.5c.86,32.14,2.73,61,4.13,63.91a6.88,6.88,0,0,1,.6,4c-.61,2.42,1.32,4.48,6.29,6.68,2.17,1,4.14,2.36,4.38,3.1,2.32,7.3,4,9.68,8.31,11.52a11.21,11.21,0,0,1,4.43,3.47c3.27,5.36,4.81,7.17,8.06,9.48a28.27,28.27,0,0,1,5.93,6.17,90.19,90.19,0,0,0,8.31,9.7,95.84,95.84,0,0,1,9.18,11,45.21,45.21,0,0,0,4.45,5.91,3.14,3.14,0,0,1,1.13,2c0,.58,1.65,3.32,3.68,6.1,3.53,4.85,5,7.76,12.1,23.37,1.76,3.89,4.36,9.12,5.78,11.62a66.56,66.56,0,0,1,3.54,7.18c.54,1.45,2.49,6.68,4.35,11.63,11.63,31,23,66.43,29.32,91.5,1.87,7.42,3.75,14.51,4.17,15.75,1.09,3.27,5,23.27,5.77,29.25.25,2.06.59,4.76.76,6,.63,4.66,1.06,8.34,1.29,11.26a15,15,0,0,0,1,4.5,23.26,23.26,0,0,1,1.34,5.61,34.36,34.36,0,0,0,1.29,6,29.68,29.68,0,0,1,1,6.38c1.2,17.87,2,26.08,3,29.87.71,2.85,1.09,8.28,1.09,15.61,0,6.17.33,12.64.73,14.37s1.07,10.07,1.47,18.52c.58,12.1,1.06,16.32,2.25,19.77,1.07,3.07,1.31,4.78.81,5.72-.4.73-.58,4.2-.42,7.7.27,5.52.67,7.08,3.07,11.78,2.79,5.48,7.25,10.48,9.38,10.51.64,0,2.12-1.5,3.29-3.35,1.57-2.48,2.62-3.38,4-3.38,2.61,0,4.37-1.13,6.12-3.92A25.25,25.25,0,0,1,562,678a21.11,21.11,0,0,0,4.73-5.18c.75-1.41,2-3.69,2.69-5.07s1.62-2.5,2-2.5,1.07-1,1.58-2.22a5,5,0,0,1,2.2-2.63,6.6,6.6,0,0,0,2.57-2.84c1.64-3.13,5.39-8.15,4.61-6.18a39.81,39.81,0,0,0-1.17,6.37c-.32,2.68-1.81,10.28-3.31,16.88-4.24,18.6-11.13,72.27-14,109l-2.36,30.25,2.46,20c1.35,11,2.63,25.23,2.83,31.62l.38,11.63,11,10.87c15.86,15.7,26.09,29,25.42,33-.13.75-49.17,53.6-109,117.43S383.69,1157,381.06,1160s-5.38,5.5-6.19,5.5-1.4.34-1.4.75-30.8.74-90.94.73c-72.52,0-90.6-.22-89.27-1ZM344.59,583.42c8.78-1,24.48-5,33.43-8.55A141.79,141.79,0,0,0,378.25,311a145.23,145.23,0,0,0-104.06,0,141.78,141.78,0,0,0,0,263.73c22.27,8.76,45.21,11.58,70.4,8.65Z"/><path id="path45" class="cls-21" d="M193.09,1166.15c.83-.46,1.62-.93,1.77-1.05s-1.51-3.36-3.68-7.2c-15.73-27.89-30-62.09-34.74-83.13-14.44-64.54-7.39-109.32,22.68-144,2.32-2.68,7.66-8.45,11.87-12.84l7.65-8-.39-6.67c-.21-3.66-1.18-19.66-2.15-35.54l-1.76-28.87-5.61-25.54-5.6-25.54-15.34-24.71c-8.43-13.59-23.63-37.28-33.77-52.65-10.86-16.44-19.1-29.72-20-32.25-2.43-6.58-7.71-15.24-16.11-26.42Q55,594.68,32.21,547.23c-15.82-33-21.33-53-25-90.82-7-70.81.47-151.19,20.2-218.25,18.65-63.38,49.32-120.44,84-156.28,41.8-43.22,92.83-65.3,169.13-73.18,13.48-1.39,42.45-3.4,48-3.32,2.26,0,12.73-.38,23.25-.9,20.28-1,34.75-.46,50.63,1.9,9.76,1.45,25.13,5,25.13,5.78s-.32.79-5.63-.46c-3.86-.91-4.66-.91-5.66,0s-2,.91-5.8.2c-4.1-.77-4.8-.72-6.07.43s-2.23,1.22-6.05.78c-4.08-.46-4.8-.33-6.3,1.08-1.68,1.58-4.49,1.92-11.66,1.41-2.28-.16-2.79.19-4.88,3.34l-2.33,3.52-4.52,0c-4,0-5.82.64-8.53,2.79-.17.13.33.95,1.12,1.82,1.4,1.56,1.4,1.6-.34,3-1.24,1-2.95,1.43-5.72,1.43h-4l-.56,5.07c-.3,2.78-.64,6.07-.73,7.31-.31,3.82-1,11.62-1.9,20.25-.45,4.54-.79,9.09-.77,10.12a71.34,71.34,0,0,1-.71,7.5c-.78,5.73-.89,7.93-2.27,46.13-.81,22.44-1,48.45-.37,54.37.19,1.86.55,11,.79,20.25s.64,20.25.89,24.38.48,8.68.52,10.12c.08,3.17.73,3.73,4.32,3.74a7.69,7.69,0,0,1,5.09,2c2.23,1.88,2.28,2,1.06,3.38s-1.19,1.51.39,3.19c1.06,1.14,3.3,2.12,6.19,2.74,3.76.8,4.63,1.28,5.21,2.9,2.3,6.37,3,7.37,6.19,8.3,6.62,2,10,3.87,12.19,6.85a19.79,19.79,0,0,0,5.92,4.94,27.28,27.28,0,0,1,6.64,5.23,31.47,31.47,0,0,0,6,5.14,35.08,35.08,0,0,1,6.49,5.64c1.86,2.08,4.38,4.7,5.6,5.81,6.38,5.82,22.28,22.72,25.79,27.42,9.37,12.52,17.62,26,20,32.73a50.52,50.52,0,0,0,3.68,7.41c4.49,7.4,19.23,46,26.93,70.6,5.12,16.34,7.6,25.18,11.44,40.88,1.92,7.84,3.79,14.57,4.16,15a5.63,5.63,0,0,1,.67,3A90.15,90.15,0,0,0,511.48,504c2,10.49,5.92,37.09,7.16,48.75.54,5.16,1.35,24.57,1.79,43.13s1.15,35.29,1.58,37.17,1,9.47,1.19,16.87c1.08,34.8,1.7,44.57,3.24,51a70.19,70.19,0,0,1,1.3,9.19c.22,3,.64,5.43.94,5.43a14.18,14.18,0,0,0,3.2-3c2.65-3,2.67-3.05,5.81-2.21,3.7,1,4.63.48,6.85-3.87.85-1.67,2-2.87,2.77-2.87s2.31-1.19,3.54-2.66a67.27,67.27,0,0,1,6.49-6.83,79.48,79.48,0,0,0,9.53-11.48c.67-1.24,2.72-4.87,4.56-8.07s4.59-8.36,6.13-11.46c2.66-5.34,2.8-5.49,2.85-3,0,1.45-1.14,7.86-2.59,14.25-4.16,18.31-11.75,78.09-14.28,112.5l-2.08,28.13,2.45,19.5c1.35,10.72,2.64,24.53,2.87,30.67l.42,11.17-2.18-.53-2.18-.53,2.31,1.73a103,103,0,0,1,8.24,8.11c3.26,3.51,7.23,7.73,8.84,9.38s5.43,6.1,8.5,9.9c4.27,5.26,5.54,7.36,5.36,8.82-.37,2.9-234.21,252.4-236.56,252.4a3,3,0,0,0-2.19.75c-.3.5-28.79.75-83.1.73-61.28,0-82.26-.24-81.15-.86ZM497.61,959.57c-1.76-2.68-2.27-1.7-.7,1.33.74,1.42,1.44,2.09,1.63,1.55A4.6,4.6,0,0,0,497.61,959.57ZM510.44,948l.1-14.56-1.08,10.5c-1.63,15.82-1.64,19.46,0,18.94.7-.24,1-4,1-14.88ZM346.09,587.57c65.79-9,116.89-61,125.17-127.41A146.11,146.11,0,0,0,290.79,301.22C231.89,316.05,188.74,365,181.18,425.66a129.39,129.39,0,0,0,0,34.5c8.75,70.16,64.39,123.06,135.27,128.62a140.33,140.33,0,0,0,29.64-1.21Z"/><path id="path43" class="cls-22" d="M193.09,1166.15c.83-.46,1.63-1,1.79-1.08s-2.76-5.9-6.48-12.82c-18.35-34.15-27.77-57.49-32.8-81.33-8.7-41.21-8.46-73.25.74-100.88,6-18,15.69-32.5,35-52.45l7.34-7.57-.78-13.43c-.43-7.39-1.43-23.56-2.22-35.93l-1.44-22.5L188.75,813l-5.52-25.12L168.42,764c-8.15-13.16-23.17-36.61-33.4-52.13-20.61-31.27-19.6-29.63-21.62-35.33-2-5.55-6.25-12.4-15.45-24.64C51.74,590.4,22.52,536.31,12.81,494.28,5.74,463.67,2.76,405.64,6,361.16c6.86-94.7,32.91-177.75,76.1-242.63,26.58-39.92,60.74-69.25,100.46-86.23C208.79,21.07,237,14,271.84,9.88c11.92-1.41,20.21-2,72.75-5.06,19.07-1.11,36-1,46.79.22l4,.47-2.16,1.16c-1.6.86-3.94,1.11-9,1-5.44-.17-7,0-7.77,1s-2.35,1.18-6,1.18c-3.25,0-5.53.39-6.47,1.1S360.84,12,357.92,12c-4.62,0-4.71.06-6.66,3-1.76,2.66-2.34,3-5.08,3.08-5.2.12-6.51.81-7.75,4.05a16.86,16.86,0,0,0-1.05,5.44c.13,3.61-2.06,5.43-6.56,5.43h-3.64l-.86,7.69c-4.83,43.73-7.39,97.31-6.53,136.69.49,22.43,1.49,46.12,2.39,56.44l.47,5.43h3.94c4.5,0,6,1.17,5.43,4.22-.23,1.19.33,3.59,1.4,6l1.78,4h4.08c4,0,4.1.05,5.84,3.19s2,3.23,6.38,3.94c2.88.47,5.28,1.35,6.36,2.36a16.3,16.3,0,0,0,6.05,2.56c3.36.73,4.71,1.47,6.12,3.31a10.17,10.17,0,0,0,4.8,3.26,32.08,32.08,0,0,1,11.39,5.76,60.77,60.77,0,0,0,7.12,4.59c11.45,6.09,28.52,19.36,38.55,30,12.94,13.69,27.8,35.29,30.82,44.8a50.94,50.94,0,0,0,3.84,7.87c3.35,5.72,10.91,24.45,18.53,45.9A651.9,651.9,0,0,1,505,476.84c1.86,7.52,3.73,14.33,4.16,15.13a10.39,10.39,0,0,1,.79,3.95,125,125,0,0,0,1.89,12.61c2.27,12.22,5.14,33.31,6.49,47.63,1.39,14.83,1.24,89.37-.22,105.53-.61,6.79-.8,12.78-.45,14.13s.2,7.58-.3,14.09a222.22,222.22,0,0,0-.49,27.87,89.82,89.82,0,0,1-.79,9c-.83,6.81-.8,7.23.72,9.3s1.53,2.49.7,7.18c-.7,3.92-.7,5.45,0,7,.5,1.1,1.16,2,1.46,2s1.17-1.68,1.91-3.75c1.36-3.79,2.81-4.68,4.65-2.85,1.22,1.23,1.93.35,4.07-5,1.3-3.27,2.22-4.56,3.36-4.73a3.89,3.89,0,0,0,2.48-2.41,9.62,9.62,0,0,1,2-3.07,25.26,25.26,0,0,0,3.27-5.65c1.22-2.62,2.67-4.77,3.23-4.77s2.18-2,3.59-4.54,5.5-9,9.09-14.56a387,387,0,0,0,20.16-34.85c2-4,3.63-6.47,3.65-5.61s-1.17,6.94-2.64,13.5c-4.2,18.69-11.12,72.7-14,109.18l-2.39,30.5,2.47,20.88c1.36,11.48,2.66,25.35,2.89,30.82.46,11,.3,11.34-3.89,8.14-2-1.5-2.56-1.64-3.65-.85s-.87,1.27,2.81,4.11c6.23,4.8,25.88,26.49,25.91,28.6a18.77,18.77,0,0,1-2.8,3.45c-1.55,1.67-56.29,60.11-121.64,129.88-89.84,95.91-119.25,126.85-120.52,126.85a2.91,2.91,0,0,0-2.16.75c-.3.5-26,.75-74.85.73-55.2,0-74-.24-72.9-.86ZM512.37,966c1.11-2.25,1.2-4.06.69-14.94-.32-6.8-.52-18.95-.46-27s0-14.12-.11-13.5c-.38,1.89-1.89,14.42-2.17,18-.14,1.86-.77,9-1.39,15.75s-1.11,15.51-1.07,19.34c.07,6.89.09,7,1.65,5.94a10.54,10.54,0,0,0,2.86-3.59Zm-11.89-1.57c-1.16-2.61-3.13-6.45-4.38-8.54s-3.25-5.88-4.46-8.44-2.44-4.64-2.74-4.64c-.86,0,2.87,11.22,6.24,18.78,1.67,3.73,6.23,8.82,7.12,7.94.19-.2-.61-2.49-1.78-5.1Zm53-97.18c0-.31-1-1.21-2.07-2l-2-1.44,1.82,2C553.07,867.89,553.48,868.14,553.45,867.22ZM338.59,593.28A152.73,152.73,0,0,0,419,561.9c30.9-23.92,51.67-60.33,56.92-99.76a162.12,162.12,0,0,0-2.63-53.08A157.2,157.2,0,0,0,443,347.36c-21.69-26.63-54.06-46-87.66-52.5a151.21,151.21,0,0,0-176.14,114.2,150.87,150.87,0,0,0,30.26,129.39c31,38,80.92,59.25,129.14,54.83Zm61-587a1.5,1.5,0,0,1,1.44.06c.25.25-.2.43-1,.39s-1-.21-.45-.45Z"/><path id="path41" class="cls-23" d="M193.28,1166.12c.93-.45,1.69-1.1,1.69-1.44a80.11,80.11,0,0,0-4.27-8.33c-6.18-11.15-19.86-39.43-23.43-48.42A262,262,0,0,1,150,1034.28q-4-46,13.21-79.62c5-9.85,10.17-16.93,20.21-27.86,4.09-4.46,9.23-10.08,11.42-12.5l4-4.38-2-34-2-34L189.13,815l-5.75-27-14.17-22.92c-7.8-12.61-23-36.25-33.71-52.55-13.73-20.81-20.13-31.21-21.55-35-2.67-7.1-5.76-12-16.63-26.66C50.68,588.24,22.41,535.84,12.81,494.28,5.74,463.67,2.76,405.64,6,361.16c6.06-83.64,27.28-158.92,61.88-219.48,7.71-13.49,21.29-33.76,29.06-43.4,7.3-9,27.16-28.75,36.54-36.26a247.44,247.44,0,0,1,33.75-22.13c34.93-18.36,72.37-27.62,129.37-32,14.36-1.1,52.05-3.38,55.79-3.39h1.79L352.33,6c-1.09.86-3.7,1.66-6.43,2-3.43.39-5,1-6.27,2.3s-2.47,1.78-5,1.78c-3.88,0-4.9.48-8.85,4.14-2.88,2.68-3.1,2.74-7.61,2.4-5.56-.43-7.34.53-8.05,4.3a5.47,5.47,0,0,1-1.74,3.32c-1,.58-1.1,1-.4,2.57,1.32,2.88-1.36,5-6.3,5h-3.79l-.47,3.48a83.5,83.5,0,0,0-.52,8.82,103.65,103.65,0,0,1-.72,10.58c-.89,6.84-1.24,11.29-1.9,23.81-.29,5.67-.75,10.31-1,10.31s-.58,6.67-.71,14.82-.48,14.89-.75,15c-.65.24-.56,77.94.09,80.43.27,1,.67,7.78.9,15,.45,14.48,1.4,27.52,2.05,28.18.24.23,1.81,0,3.5-.41,2.2-.59,3.5-.59,4.58,0,1.67.9,1.84,1.71.77,3.71-.54,1-.36,1.68.75,2.69a4.4,4.4,0,0,1,1.48,2.63c0,2.65,1.77,3.15,7.92,2.22l5.75-.88,2.22,2.69c2.07,2.51,2.51,2.69,6.45,2.69,3.67,0,4.44.27,5.8,2s2.4,2.05,5.65,2.34c2.38.22,4.71.92,5.58,1.7s5.88,2.4,11.22,3.73c28.24,7,54.94,22.62,75.8,44.34,7.7,8,11.42,12.74,18.84,23.92,6.9,10.41,9.1,14.29,10.74,19a65.24,65.24,0,0,0,4.45,9.15c3.49,5.91,10.94,24.32,18.68,46.12a622.58,622.58,0,0,1,19.72,65.73c1.7,7,3.39,13,3.76,13.36a6.79,6.79,0,0,1,.68,3.38A122.41,122.41,0,0,0,511.12,507c2.45,13.19,5.29,34.51,6.29,47.25.44,5.57,1.19,14.68,1.67,20.25,1.1,13,.43,57.71-1.18,78.75-2.24,29.12-4.39,45.65-8.46,65.25a123.4,123.4,0,0,0-2.22,15.75c-.14,3.51-.45,9.25-.68,12.75a79.4,79.4,0,0,0-.14,13.63c.16,2.87.69,4.77,1.65,5.83,1.28,1.4,1.33,2,.55,5.36-1.16,5-1.13,11.55.06,12.5a9.25,9.25,0,0,0,2.54,1.24c1.45.45,1.71,0,2.89-4.78.71-2.9,1.51-5.27,1.77-5.25a6.42,6.42,0,0,1,1.94,1.12c1.84,1.4,2.67,1.4,2.67,0a4.45,4.45,0,0,1,1.4-2.44,11.87,11.87,0,0,0,2.31-4.15c.5-1.55,1.39-2.81,2-2.81s1.42-.93,1.82-2.07a19,19,0,0,1,1.46-3.18,55.14,55.14,0,0,0,4.89-11.72c4.24-14.59,14.27-35.84,24.39-51.66a320.4,320.4,0,0,0,18.14-32.06c4-8.58,4.08-6.9.24,9.94-3.26,14.27-10.7,72.89-13.23,104.25s-2.51,34.53.38,58c1.06,8.58,2.15,20.14,2.43,25.69.48,9.48.42,10.1-.87,10.1a5.74,5.74,0,0,1-3.06-1.58c-1.49-1.41-2-1.48-4.36-.69s-2.59,1-1.68,2.31a28,28,0,0,0,4.31,4c3.76,2.89,13.32,13.2,14.78,15.92.52,1,1.31,1.81,1.74,1.81s.67.62.53,1.38C577.86,899,518.45,963,517.46,963c-2,0-3.33-37.43-2.24-62.63.47-11-.26-15.42-1.12-6.64a56.62,56.62,0,0,1-1.14,7.39c-1.05,3.68-4.13,37.85-5.15,57.23-.6,11.15-1.11,13.4-2.79,12.3-2.06-1.34-15.12-27-19.35-38-1.11-2.89-2.32-5.92-2.68-6.75l-.67-1.5,0,1.5c-.06,2.49,5,20.34,8.24,29.25.91,2.48,2.21,6.05,2.9,7.94,2,5.44,6.68,14,8,14.49a1.22,1.22,0,0,1,.78,1.57c-.23.61-39.79,43.13-87.89,94.49L326.84,1167l-67.63,0c-49.18,0-67.16-.27-65.93-.86ZM515.72,882.6c-.21-.52-.38-.1-.38.93s.17,1.46.38.94a3,3,0,0,0,0-1.87ZM554,866.8c-.47-1.23-9.57-7.47-10.11-6.93-.21.2,1.77,2.78,4.39,5.73,4.34,4.9,4.81,5.23,5.44,3.81a4,4,0,0,0,.28-2.61Zm-29.78-21.28a8,8,0,0,0-.78-1.79c-1.19-2.23-3-1.81-3,.7,0,1.88.23,2.1,1.87,1.79,1-.2,1.88-.51,1.88-.7ZM340.09,597c40.43-3.8,78.58-23.56,103.94-53.84a154.51,154.51,0,0,0,32.11-62.32c3.72-14.78,4.79-25.12,4.36-42.07-.54-21.35-2.12-28.59-11.54-52.87-8.56-22.05-18.29-37.27-33.58-52.5a154.54,154.54,0,0,0-140.29-42,143.91,143.91,0,0,0-36.75,12.77c-11.62,5.74-15.88,8.64-28.27,19.27-28.35,24.32-53,67.06-57.21,99.2a163.85,163.85,0,0,0,3.44,58.25C194.8,554.38,264.89,604.08,340.09,597ZM360.17,4a4.35,4.35,0,0,1,2.25,0c.51.21-.09.36-1.33.35s-1.65-.19-.92-.38Z"/><path id="path39" class="cls-24" d="M193.28,1166.12c.93-.45,1.69-1.19,1.68-1.64a44.92,44.92,0,0,0-3.4-6.82c-5.79-10.23-20.23-40-24.18-49.88A249.16,249.16,0,0,1,151.92,1050c-5.73-37.62-2.07-69.37,10.9-94.63,6.22-12.1,12.84-20.72,28.21-36.74,5.62-5.86,7.69-8.52,7.69-9.91,0-3.87-3.74-65.45-4.15-68.34-.81-5.71-11-51.76-11.8-53.25-3.22-6.12-33-53.17-48.45-76.62-13.59-20.6-19.31-29.92-20.4-33.23-2-6.25-5.69-12-19-30-46-62.2-72.34-111.46-82.07-153.75C7.39,470,3.92,425.79,4.75,391,7.26,286.3,34.52,190.38,82.09,118.91c26.35-39.59,62-70.06,101.63-86.84C217,18,250.72,11.21,308.15,7.14,326.9,5.81,327.5,5.8,326.5,6.81c-.43.42-3.62,1-7.09,1.16-5.71.36-6.54.61-8.6,2.61s-2.89,2.2-6.14,2.2c-4.13,0-5.41.8-7.36,4.57-.92,1.78-1.64,2.2-3.92,2.27-5.41.17-7.15.89-7.77,3.2a10.79,10.79,0,0,1-2.24,3.93c-1.61,1.71-1.62,1.81-.29,3.28s1.3,1.57,0,3-2.65,1.89-9.15,2.69c-3.7.45-3.89.59-4.36,3.11a53.13,53.13,0,0,0-.48,7.62,74.11,74.11,0,0,1-.68,9.5c-.39,2.47-.88,8.21-1.1,12.75s-.57,9.43-.76,10.87-.54,6.85-.77,12-.6,11.91-.81,15c-1.09,15.84-1.89,88.5-1,88.5.24,0,.72,7.85,1,17.44s.71,18.79.83,20.44c.63,8.58,2,24,2.09,24.15a42.37,42.37,0,0,0,5.36-2.35c6.05-2.9,7.52-2.54,6.83,1.69-.28,1.7-.05,2.92.68,3.65A4.75,4.75,0,0,1,282,263c0,2.57,1.59,2.91,5.15,1.1,4-2,5.07-2,7.16.46l1.74,2,4-1.29c3.65-1.17,4.11-1.18,5.8-.07a5.65,5.65,0,0,0,4.57.68c4.15-.79,20.11-.54,25.61.4,23.19,4,28.63,5.34,40.39,10.07A156.77,156.77,0,0,1,440,322.76c8.94,10.71,19.17,26.69,21.22,33.15a69.14,69.14,0,0,0,4.57,9.37c9.69,17.09,29,73.07,38.55,111.73,1.88,7.61,3.75,14.18,4.16,14.58s.74,2.11.75,3.78a115.64,115.64,0,0,0,1.83,12.87c2.3,12.35,4.56,28.43,6.09,43.22,1.6,15.45,2.26,63,1.15,83.07-2.92,52.77-4.24,61.78-16.67,114.38-2.86,12.1-4.66,23.56-4.48,28.5a45,45,0,0,1-1.12,7.8,28.43,28.43,0,0,0,1.33,16.72c.52,1.4.48,3.65-.13,7.29-1,5.77-.49,9.81,1.17,9.81.59,0,1.07.34,1.07.75s1.33,2.12,3,3.8c3.85,4,5.64,3.31,6.42-2.33.54-4,.42-3.88,3.93-2.44.85.35,1.29-.64,1-2.26a16.37,16.37,0,0,1,1.77-4.13,32.58,32.58,0,0,0,2.7-7.83c.55-2.92,1.28-4.56,2.26-5.09a2.78,2.78,0,0,0,1.45-2.14c0-1.82,7.54-29.39,11.41-41.7,6.94-22.11,15.37-40.69,26.2-57.75a268.44,268.44,0,0,0,16.32-28.5c2.07-4.13,3.79-6.9,3.8-6.17s-1.15,6.64-2.57,13.13c-4,18.21-10.62,70.87-13.46,107l-2.41,30.71L563.34,831c1.15,9.3,2.48,22.58,3,29.5,1,14.43.76,15.41-3.24,12.42-2-1.52-2.83-1.72-4.45-1.13-3,1.09-4.4.2-4.4-2.78s-1.3-4.35-14.15-13.23c-5.08-3.5-11.23-8.14-13.66-10.31s-4.73-3.94-5.1-3.94c-1,0-1.57,2.8-1.56,7.13,0,2.72.21,3.41.72,2.53,1-1.68,4.88-3.17,6.92-2.63,1.66.43,15.87,14.57,23.45,23.33,2.07,2.38,4.36,4.88,5.11,5.55,7.33,6.62,8.67,8.19,8.25,9.78-.23.9-10.22,12.1-22.18,24.87-19.95,21.31-21.86,23.14-23,22.1s-1.28-3.28-1.42-17.84c-.14-14.2.52-36.06,1.72-57.19l.3-5.25-1.12,5.62c-.62,3.1-1.23,6.47-1.36,7.5s-.76,5.08-1.4,9-2,15.23-3.08,25.13-2.24,20-2.66,22.5c-1.14,6.76-3.19,35.62-2.73,38.62.48,3.19-.38,7.66-1.54,8.05s-10.31-16.4-15.46-27.88c-3.29-7.33-6.89-17.63-11.69-33.42q-2.65-8.7-.5,6c1.85,12.6,3.54,19.32,10.64,42.38,2.32,7.56,2.22,8.87-1,12.44-7.89,8.83-182,194.62-182.77,195l-2.54,1.32c-1.23.63-16.36.85-56.25.81s-54.12-.27-52.89-.86ZM476.72,900.6c-.21-.52-.38-.1-.38.93s.17,1.46.38.94a3,3,0,0,0,0-1.87ZM344.22,601.48a160.68,160.68,0,0,0,104.31-56.07c23.1-27.69,35.82-61.19,37.2-98,.42-11.29.33-12.45-1.5-19.5-4.48-17.27-17.33-50.87-25.29-66.17-14.4-27.65-27.75-42.22-51.56-56.23a159.78,159.78,0,0,0-111.54-19.28c-21.86,4.17-33,9.92-58.35,30.12-36.15,28.82-59.85,69.35-68.5,117.14-2.41,13.27-2.49,21.66-.36,34.54,11.83,71.28,67.77,124.77,139.59,133.48a145,145,0,0,0,36,0Z"/><path id="path37" class="cls-25" d="M193.47,1166.28c0-.41.51-.75,1.12-.75s1.13-.18,1.13-.4c0-.68-3.87-8.12-5.25-10.1-2.59-3.7-18.64-36.57-22.34-45.75-7.81-19.39-11.5-32.74-15.11-54.75-4.53-27.68-4.77-47.85-.78-67.57,5.55-27.42,14.68-43.46,38.91-68.4l7.87-8.1-2.08-35-2.08-35-5.57-25.72c-3.06-14.15-6.08-26.72-6.72-28-3.08-6-30.34-49.15-46.83-74.21-20.87-31.7-19.62-29.64-22-36.27-2.15-5.92-5.8-11.72-15.89-25.23-46.75-62.59-75.31-115.5-85-157.5C5.75,463,2.81,406,6,361.82c6.82-94.5,32.92-177.69,76.09-242.54q30.14-45.27,72-71.75c7.68-4.86,30.13-15.83,39.41-19.26a314.68,314.68,0,0,1,58.84-15.06c12.79-2,30.13-4.16,33.61-4.17,4.78,0-1.52,3.73-7.73,4.6-6.81.95-7.06,1.06-8.76,3.56a22.69,22.69,0,0,0-1.91,3.21c-.14.44-2.26,1.11-4.7,1.5-5,.78-6,1.4-6.68,4-.46,1.84-2.57,2.82-8.12,3.75-3.69.61-5.5,3-4,5.32.94,1.43.9,1.77-.39,3.06s-1.66,3.92-3,19a1229.18,1229.18,0,0,0-1.83,184.19c1.48,21.81,2.44,30.25,3.73,32.85a8.41,8.41,0,0,1,.65,5.11c-.65,4.1.92,4.39,6,1.11l4.17-2.67,1.22,1.86c1.55,2.36,2,2.34,6.33-.34,3.48-2.14,3.61-2.16,4.85-.79,2.41,2.66,5,2.55,10.45-.44,4.5-2.47,5.22-2.66,6.83-1.8s2.43.72,6.51-1c2.59-1.06,8.75-3.51,13.7-5.46l9-3.53,13.13.38a152.1,152.1,0,0,1,86.34,29.92c7.72,5.71,20.75,18.27,28.15,27.11,9.14,10.91,21.26,30.09,21.26,33.62,0,.54,1.66,3.86,3.69,7.38,7.32,12.71,22.28,53,32.35,87,3,10.21,10.56,40.05,11.19,44.25.33,2.27,1.48,9,2.55,15,2.61,14.7,4.71,31.06,5.71,44.63.46,6.19,1.15,14.34,1.54,18.13,1.63,15.63.73,56.59-2,88.74-2.51,30.2-5.23,44.53-20.48,108-5.17,21.53-7,30.7-7,34.43,0,1.48.08,4.55.12,6.82s-.23,8.18-.6,13.13c-.56,7.52-.48,9.52.5,12.19.93,2.51,1,3.66.34,5.4-.57,1.51-.63,4.06-.18,8,.71,6.33,2.25,9.17,8.23,15.22l3,3,1.79-1.69c1.34-1.26,2.1-3.3,3-8,.65-3.45,1.18-6.36,1.18-6.48a3.22,3.22,0,0,1,1.39-.57c1-.26,1.75-1.8,2.71-5.71a25.68,25.68,0,0,1,2.66-7.07c1.26-1.6,2.56-7,8-33.15,7.17-34.63,18.26-69.48,28.76-90.38,1.76-3.5,5.81-10.43,9-15.39a314.72,314.72,0,0,0,16.42-28.44c2.11-4.11,3.84-6.8,3.84-6s-1,6-2.21,11.59c-3.57,16.37-11,75.84-13.45,108.39l-2.19,28.51,2.2,17.61c2.28,18.19,3.81,40.11,2.91,41.85-.39.76-1,.55-2.74-.88-1.87-1.57-2.76-1.81-5.38-1.46l-3.14.42V869c0-2.15-.49-3.07-2.44-4.58-2.23-1.74-28.69-21.6-31-23.28-1.44-1-1.62-.6-2.18,5.23-.28,2.89-1.5,12-2.72,20.25s-2.7,18.54-3.29,22.87C511,906.82,507,952.15,507,961.91c0,5.33-.63,8-1.74,7.67-.44-.15-2.91-4.13-5.49-8.85-14.1-25.75-21.66-49.23-24.25-75.32-.37-3.71-1-8.1-1.38-9.75-.62-2.64-.72-2.17-.79,3.88A261.71,261.71,0,0,0,476.36,918c.84,4.75,1.81,10.32,2.15,12.38a79,79,0,0,0,1.8,7.87c.65,2.27,1.57,6,2,8.38l.86,4.26-3.31,3.67c-1.82,2-47,50.3-100.38,107.31-57.9,61.81-97.6,103.63-98.39,103.63a2.32,2.32,0,0,0-1.79.75c-.3.49-15.5.75-43.16.75-28,0-42.71-.26-42.71-.75ZM350.12,604.55a153.71,153.71,0,0,0,47-14.56,160.63,160.63,0,0,0,55-42.83c22.25-26.45,37-64.86,37.2-97.13.06-8.22-.1-9.17-3.47-20.26-3.11-10.25-5.35-16.71-14.07-40.49-5.54-15.09-15.75-35.69-23.24-46.87-9.95-14.86-24.08-29.89-35.47-37.72-11.63-8-33.61-17.3-49.69-21-23.49-5.44-54.44-5.5-72.37-.14-7,2.1-22.08,9.94-33.39,17.38-34.5,22.69-61.53,54.18-76.16,88.71-9.9,23.37-15.7,49.89-15.94,72.79-.11,10.91.07,12.68,1.92,19.56,8.57,31.86,23.19,57.06,45.67,78.71A152.14,152.14,0,0,0,253.16,589a161,161,0,0,0,97,15.55ZM520.85,908.3c-.57-.93.18-35.92,1-46.81.64-8.48,1.43-10.21,4.63-10.21,1.7,0,16.6,14.82,19.79,19.68a22.74,22.74,0,0,1,3.05,6.57c.45,2.57.13,3-13.12,17.07C528.74,902.54,522.33,909,522,909A1.57,1.57,0,0,1,520.85,908.3Z"/><path id="path35" class="cls-26" d="M195.72,1162a24.48,24.48,0,0,0-3-6.56c-4.35-4.76-17.63-29.79-23.68-44.63-8.63-21.13-11.77-32.1-15.65-54.75a220.19,220.19,0,0,1-3.21-45.37c.49-16.28,2.36-27.84,6.53-40.31,6.35-19,14.34-31,34.31-51.63l7.69-7.94v-4.14c0-2.27-.85-18.1-1.88-35.18L195,840.41l-5.68-26.25-5.67-26.25-15.09-24.38c-8.3-13.4-23.56-37.22-33.91-52.93-11-16.65-19.22-29.93-19.79-31.87-1.73-5.84-5.87-12.79-14.48-24.33-49.85-66.79-77.4-117.67-87.52-161.62-7-30.56-10-86.16-6.81-130.12,6-83.44,27.81-160.8,62.62-221.73C95.7,93.55,127.32,61.41,168,40,188.81,29,212.34,21,240.72,15.4c3.09-.62,5.78-1.12,6-1.12s-1.11,1.48-2.89,3.29c-2.42,2.47-4,3.42-6.34,3.78-7.14,1.13-8.69,1.86-9.87,4.68a14.35,14.35,0,0,0-1.12,4c0,1.92-2.21,3.57-6.21,4.64a14.12,14.12,0,0,0-5.56,3c-1.91,2-1.93,2.14-.67,3.53s1.25,1.55-.2,3.58c-1.65,2.31-2.58,12-5.05,52.74-1.34,22-1.89,82-1,105,1.75,43.76,5.53,88.61,7.87,93.38a8.44,8.44,0,0,1,.65,4.93c-.33,2-.14,3,.73,3.67s1.72.53,4.86-2.12a26.43,26.43,0,0,1,4.13-3.11c.25,0,.78.88,1.19,2,.6,1.58,1.08,1.86,2.56,1.49,1-.25,2-.11,2.28.3.85,1.37,2.32.79,6.75-2.65,3-2.34,4.62-3.16,5.15-2.62,1.58,1.57,5,.72,10-2.48,2.79-1.78,8.11-4.86,11.82-6.84l12.85-6.87c6.16-3.3,19.9-9.4,28.68-12.73,4.17-1.58,6-1.81,14.65-1.81,33,0,63.93,10.54,91.8,31.27,7.47,5.56,22.62,20.7,28.38,28.36,9.06,12.06,17.48,25.84,18.54,30.37a50.35,50.35,0,0,0,3.89,7.88c4,6.93,11.26,24.73,19.3,47.25a662.57,662.57,0,0,1,20,66.24c1.66,6.71,3.26,12.6,3.57,13.1a22.73,22.73,0,0,1,1.08,5.41c.28,2.47,1.54,10.4,2.8,17.62,2.6,14.93,4.94,34.78,6.08,51.63,2,29,.15,86-3.72,116.37-.39,3.1-.91,7.32-1.16,9.38s-.57,4.25-.74,4.87-.49,2.31-.72,3.75c-1.91,11.69-4.12,21.43-13.9,61.18-8.22,33.44-10,42.45-9.42,47.47.35,3,.2,4.38-.59,5.27-3,3.37-5.32,40-3.5,54.83.49,3.92,1,9.35,1.14,12.07.26,4.84.86,6.6,4.57,13.43,2.83,5.22,4.74,7.5,6.25,7.5a2,2,0,0,1,1.79,1.5c.47,1.82,2.58,2.75,3.69,1.64.74-.73,3.34-11.9,5-21.48.35-2.05,1-3.85,1.48-4s.84-1.08.84-2.05c0-3.25,3.67-25.23,6.39-38.23,1-4.95,3.21-15.75,4.83-24,3.46-17.58,6.65-31.69,9.43-41.63,10.22-36.65,17.43-53.83,33.07-78.8,3.25-5.18,8.26-13.85,11.15-19.25s5.31-9.77,5.39-9.69-.83,4.7-2,10.27c-3.61,16.94-11,76.33-13.47,108.72L561,814.16l2.28,18c2.41,19.08,3.71,41.62,2.39,41.62A7.26,7.26,0,0,1,563,872.3a6.75,6.75,0,0,0-4.79-1.32c-2.79.17-2.9.09-3.14-2.41a5.82,5.82,0,0,0-1.26-3.37c-10.27-8-33.52-25.27-33.74-25-.57.57-5.56,37.06-7.82,57.25C509.86,919,507,953.47,507,961.07c0,5.46-.62,8.13-1.77,7.75S494,949.9,490.14,940.91a192.59,192.59,0,0,1-12.82-45.38c-2.83-18.36-2.89-20.7-1.49-57,.35-9.09-.57-5.71-2.25,8.25-.67,5.57-1.53,11.35-1.92,12.85-.71,2.75-1,31.69-.4,40,.18,2.47.76,8,1.3,12.37,1.56,12.48,1.35,14.59-1.75,17.86-5.64,5.94-214.15,228.81-217.17,232.13-1.76,1.93-3.7,3.51-4.31,3.51s-1.11.34-1.11.75-9,.75-25.44.75H197.35Zm284.2-351a.82.82,0,0,0-.7-.94c-.41,0-.73,1.1-.7,2.44.05,2,.16,2.2.7.94A9.59,9.59,0,0,0,479.92,811ZM349.47,608.63c48.06-7.17,89.66-33.44,116.37-73.47,9.41-14.11,19.64-37.94,23.48-54.69,1.72-7.51,3.4-19.31,3.4-23.87,0-12.41-18.76-67.4-32-93.83-19.74-39.39-47-65.4-82.37-78.61-17.51-6.53-44.45-10-63.76-8.23-11,1-14.3,2-26.59,7.6-45.63,20.9-82.33,55.57-102.78,97.13-14.17,28.78-22.1,66-20.82,97.87.34,8.55.65,10.17,3.5,18.38,3.91,11.22,12.77,29.35,18.71,38.25a168.13,168.13,0,0,0,116.74,73.45c4.54.63,9.77,1.29,11.63,1.46,6.33.58,26.61-.27,34.5-1.44ZM525.82,869c-1.2-1.44-.21-12.58,1.15-13,1.18-.39,5.26,3.5,5.86,5.6.38,1.31-.23,2.44-2.78,5.14C527.19,869.76,526.66,870,525.82,869Z"/><path id="path33" class="cls-27" d="M201,1163.85c-1.32-5.18-2.43-7.52-4.9-10.31a78.47,78.47,0,0,1-6-8.63c-2-3.3-4.21-6.68-4.9-7.5a100.77,100.77,0,0,1-5.25-8.63,90.83,90.83,0,0,0-5.29-8.62c-3.3-3.87-12.32-25.76-15.7-38.12-6.18-22.63-9.48-49.47-8.77-71.38.68-21.06,4.15-36.81,11.46-52.07,6.86-14.31,14.15-24.18,29.73-40.25l7.34-7.57v-5.18c0-2.85-.85-18.85-1.88-35.55L195,839.67l-5.64-25.86c-3.11-14.22-6.25-26.88-7-28.13-8.19-13.81-31-49.89-46-72.58-19-28.89-21-32.25-22-36.19s-5.57-11.41-14.59-23.5Q28,557.26,13.56,495C7.1,467.14,3.93,416.47,6,373.91c4.7-97.61,30.89-185.5,75.55-253.5,9.85-15,16.84-23.75,28.69-35.9C134.24,59.89,154.65,45.45,183,33c8.42-3.69,28.56-10.67,29.14-10.1.91.91-2.83,3.29-7.59,4.84-4.59,1.5-5.22,1.95-6.56,4.73A14.84,14.84,0,0,0,196.47,37c0,2.88-1.73,4.41-8.6,7.62-5.46,2.55-7.3,3.81-8.24,5.62s-1,2.68-.36,3.92.59,2.19-.3,4.3c-.81,1.91-1.51,8.7-2.33,22.6-3.59,60.54-3.37,111.93.73,169.74,2.62,37,6.91,73.59,9,76.76a9,9,0,0,1,1.1,4.62c-.34,7.45,1.28,7.32,7.91-.64,5.14-6.16,6.32-6.64,7.47-3,.31,1,1.26,1.33,3.81,1.37,3.12,0,3.67-.25,6.77-3.56,2.36-2.52,3.79-3.49,4.78-3.23s2.52-.65,4.66-2.6c5.82-5.31,21.71-17.43,30.19-23,4.57-3,13.65-8.41,20.18-12,11.58-6.36,16.7-8.78,31.19-14.75l7.06-2.91h10.71c39.14,0,75.15,14.56,102.94,41.62,5.51,5.37,12.06,12.29,14.56,15.38,5.61,7,15.41,21.67,18.14,27.27,3.78,7.73,1.57,5.75-3.94-3.52-27.21-45.76-68.9-71.92-121.51-76.25-13.37-1.1-18.31-.48-28.65,3.56-32.32,12.63-67.11,36-87.61,58.94-38.19,42.65-56.34,97.92-51.9,158,.81,11,2.2,15.84,7.86,27.16a172.39,172.39,0,0,0,33,45.23Q244,603.9,299.84,613.31c11.38,1.91,41.38,1.91,52.76,0q55.77-9.39,94.76-48.14c22.86-22.73,37.91-49,45.84-79.88,4.94-19.27,4.6-22.71-5.48-54.76-4.6-14.61-16.69-47.42-21.64-58.68a64.35,64.35,0,0,1-2.95-7.32c.83,0,6.09,10.91,10,20.78,6.92,17.4,18.32,50.89,23.43,68.85,4.43,15.53,10.47,39,11.11,43.12.36,2.27,1.67,10,2.93,17.25,2.52,14.52,4.86,34.3,6.06,51.14,1.13,15.82,1,53.87-.33,78.67-2.28,43.65-3.75,52.32-20.17,119.19-8.06,32.83-9.67,40.85-9.14,45.58.36,3.17.16,4.37-1,6-2.54,3.63-4.89,26.43-4.93,47.8,0,19,.92,28.44,4.2,41.25.85,3.3,2,7.94,2.52,10.31,1.65,7.27,9.17,19.31,12.06,19.31,1.23,0,1.86-1.89.94-2.82-.51-.51-.41-1.46.31-2.9,1.49-3,3.11-10.42,2.57-11.81-.24-.64-.17-1.34.17-1.55.88-.54,2.15-7.57,3.51-19.54,2.06-18.1,4.6-35.4,7.75-52.88,9.5-52.68,17.72-84.42,29-111.87,4.87-11.88,8.76-19.3,16.46-31.38,3.81-6,9.06-14.84,11.67-19.69s4.86-8.67,5-8.51-.57,4.81-1.64,10.32c-3.45,17.74-10,72.62-12.45,103.59l-2.28,29.2,2.34,18.86C565.9,854.23,567,873,565.55,873a8.27,8.27,0,0,1-3-1.57c-1.77-1.31-2.41-1.43-3.77-.7-2,1.06-4.09-.27-3.57-2.26a3.74,3.74,0,0,0-.32-2.43c-.37-.65-7.29-6.18-15.4-12.29-19.82-15-19.24-14.56-19.83-13.93-.29.31-.75,2.92-1,5.81s-1.51,12.34-2.73,21-2.4,17.27-2.61,19.12-.52,4.22-.67,5.25c-2,13.48-5.14,47.36-6.23,67-.29,5.39-.85,9.63-1.28,9.7-1.17.18-9.71-15.32-13.93-25.27a196.9,196.9,0,0,1-14.31-51.75c-2.43-17.39-.36-62.77,3.47-76.16l1-3.41-3.52-3.84c-1.93-2.12-4.76-5.31-6.28-7.09s-2.55-2.58-2.28-1.75a9.22,9.22,0,0,0,1.43,2.62c1.2,1.42,3.22,6.8,4.29,11.41.68,2.94.52,5-.92,12.37-1,4.87-2.19,11.89-2.74,15.6s-1.36,8.94-1.79,11.62a228.35,228.35,0,0,0-2.27,27,32.41,32.41,0,0,1-.94,8.24C465.05,890.72,208.36,1165,206,1165.41a5.15,5.15,0,0,0-2.33.94c-1.29,1.24-1.84.72-2.67-2.5Z"/><path id="path31" class="cls-28" d="M191.93,1144a87.19,87.19,0,0,0-5.58-8.48,81.51,81.51,0,0,1-5.67-9,58.33,58.33,0,0,0-5-7.87c-.52-.41-3.34-5.81-6.26-12s-6-12.6-6.76-14.25c-1.92-4-4.76-14.07-7-24.9-8.06-38.69-7.6-70.47,1.39-97.47,5.71-17.12,14.3-30.36,31.08-47.88,11.59-12.11,10.78-10.81,10.64-17-.07-3-1-19-2-35.54L195,839.53,189.42,814c-3.07-14.06-6-26.35-6.52-27.31-3.51-6.57-32.85-53-48.12-76.14-14.28-21.64-18.77-29-20-33-1.91-5.92-5.42-11.54-16-25.63C52.86,590.9,23,536,13.56,495,6.48,464.42,3.47,405.18,6.73,360.41,13.61,266,39.17,184.5,82.09,120c24-36,53.6-63.24,87.06-80.07C180,34.5,194.26,28.33,194.8,28.86c.21.21-.43.69-1.41,1.07-10.31,4-12.09,4.91-12.83,6.77-.43,1.08-1.32,3-2,4.37s-1,2.63-.68,2.9c1.38,1.39-2,4.88-7.93,8.09-4.42,2.41-6.89,4.31-8.36,6.44-2,2.93-2.06,3.06-.79,5s1.24,2.12-.2,5.07c-1.72,3.52-2.27,9.66-2.8,31.59-.2,7.84-.55,18.8-.79,24.37-.68,15.6-.7,58.82,0,73.88.32,7.42.7,17.55.84,22.51s.43,10.19.65,11.62.78,9.37,1.26,17.62c2.1,36.64,9.26,96.63,11.88,99.64.66.76,1.38,3.29,1.59,5.62.34,3.86.54,4.25,2.25,4.42s2.43-.73,6-6.56c2.25-3.71,4.52-6.75,5-6.75s1.18.93,1.45,2.07c.81,3.36,1.2,3.54,2.93,1.36,1.5-1.87,1.81-2,3.33-1.06s1.86.79,4-2c7.33-9.2,22.8-24.44,34.24-33.71,18.1-14.67,40.19-28.45,58.12-36.25,21.75-9.45,20.83-9.18,31.15-9.19a155.2,155.2,0,0,1,46.85,7.62c8,2.62,25.67,11.11,32.77,15.73,6.7,4.36,15.46,11.19,18.23,14.23l2.25,2.45L419.48,306c-16.72-12.95-29.93-20.23-47.64-26.23a150.93,150.93,0,0,0-39.62-8.24c-13.7-1.13-18.2-.52-28.79,3.89-75,31.22-122.81,86.54-135.84,157.08a255.9,255.9,0,0,0-3.54,62.92c.63,8.37,1.17,11,3.81,18.49,4.33,12.33,5.95,15.7,11.88,24.63,28.44,42.83,71.59,70.29,122.14,77.73,12.3,1.81,36.38,1.81,48.68,0,57.89-8.52,107.21-44.3,132.49-96.1a166.89,166.89,0,0,0,13.09-35.55c1.4-5.52,2.71-10.21,2.92-10.41.46-.47,1.59,2.41,3.75,9.58,1.92,6.38,2.52,9.53,5.71,30,1.26,8.05,2.76,17.16,3.34,20.25s1.56,11.2,2.18,18c4.37,47.61,4,85.46-1.14,129-2.56,21.5-5.91,37.45-19,90.75-6.83,27.7-8.28,35.51-7.1,38.34.8,2,.73,2.43-.61,3.88-3,3.3-6.51,35.55-5.81,54,.82,21.48,3.42,38.26,8,51.91,2.22,6.59,6.66,15.61,8.12,16.51a2.38,2.38,0,0,1,.73,1.83c0,1.47,1.29,2.27,2.81,1.74a1.35,1.35,0,0,0,.94-1.07,3.78,3.78,0,0,1,1.12-1.87,5.75,5.75,0,0,0,1.22-3.32c.11-2.61.18-3.26,1.73-16.82.66-5.78,1.53-12.7,1.92-15.38s1.24-8.92,1.89-13.87c2.16-16.64,5.68-41.23,6.32-44.25.36-1.65,2.36-11.95,4.46-22.88,9-46.78,19.66-82,31.63-104.62,3.42-6.45,10.83-18.75,12.47-20.69.55-.65,3.69-5.88,7-11.61s6-9.93,6-9.32a58.07,58.07,0,0,1-1.1,6c-.59,2.68-2.11,13-3.38,22.88s-3.3,25.59-4.53,34.87-3.28,30.19-4.54,46.46l-2.3,29.59,2.38,19.16c2.91,23.5,3.78,39.79,2.1,39.79a4.41,4.41,0,0,1-2.47-1.49c-1.08-1.19-1.93-1.4-4.24-1-2.8.45-2.89.4-2.89-1.74,0-2.78-.92-3.64-16.88-15.64-7-5.27-14-10.61-15.57-11.86-1.73-1.38-3.09-2-3.51-1.56-1,1.07-6.75,42.59-9.38,68.2-1.74,16.86-4.16,48.61-4.16,54.42,0,2.81-.32,5.31-.72,5.56-.9.56-3.86-4.52-10.5-18a177.06,177.06,0,0,1-15.73-46.5c-.44-2.48-1-5.35-1.2-6.38-2.21-10.6-3.08-32-1.92-47.25.92-12,3.11-29.13,4.54-35.5l.82-3.63L477.22,806c-4.83-5.21-13.07-17.53-15.68-23.43-1.85-4.17-3.92-6.44-2.94-3.22a124.63,124.63,0,0,0,8.85,19.78,50.64,50.64,0,0,1,6,13.32c.88,3,.08,8.57-3.25,22.68-.78,3.3-1.95,10.86-2.59,16.8-.72,6.68-1.7,12-2.56,13.88s-45,49.62-133.15,143.69C223.33,1125.41,199.76,1150.2,198,1150.39c-1.95.21-2.45-.31-6.07-6.38Zm234-832.54-2.59-2.81,2.82,2.58c2.61,2.41,3.15,3,2.58,3A25.51,25.51,0,0,1,425.93,311.47Z"/><path id="path29" class="cls-29" d="M185,1129.72c-1.41-2.37-3.51-6.08-4.67-8.25s-2.38-3.94-2.72-3.94c-.87,0-6.33-11.06-11.85-24-2.55-6-5.59-13.07-6.76-15.75-3.07-7.1-6.85-26.86-8.24-43.12-3.2-37.36,3.69-68.91,20.05-91.79,5.14-7.19,10.41-13.28,20.4-23.6l7.88-8.13-.21-6.49c-.12-3.57-1-19.65-2-35.74l-1.79-29.25-5.66-26-5.65-26L169,763.85c-8.09-13.07-23.18-36.64-33.53-52.36-15.13-23-19.21-29.71-20.8-34.35-2.33-6.81-4.08-9.54-19.09-29.86-45.91-62.1-72.53-111.74-82.06-153-7.07-30.61-10-88.64-6.82-133.12,6.17-85.19,28-161.45,63.78-222.75,19.82-34,45.92-64,69.7-80.25,3.51-2.39,6.64-4.81,7-5.36a2,2,0,0,1,1.43-1c.45,0,3.46-1.68,6.67-3.75a66.34,66.34,0,0,1,6.26-3.75c1.1,0,.19,2.17-1.83,4.38-2.39,2.62-2.7,3.5-1.51,4.24.91.56-1.72,6-3.16,6.57-2.93,1.13-16.47,12.09-17.16,13.89a12.41,12.41,0,0,1-2,3.36c-1.08,1.2-1.07,1.54.21,3.91s1.34,2.78.15,6.19c-3,8.66-3.64,99.3-1,144,2.95,49.62,6.73,85.3,13.62,128.49,3.21,20.12,4.31,24.73,6.26,26.35,1.19,1,1.51,2.34,1.69,7.12.22,5.83.25,5.91,2.29,6.15,1.47.16,2.2-.16,2.53-1.13,1.4-4.09,5.81-14.89,8.17-20,2.25-4.87,2.88-5.7,3.78-5a3.31,3.31,0,0,1,1.08,2.21,3.34,3.34,0,0,0,1.1,2.23c.92.76,1.32.46,2.39-1.78.93-2,1.65-2.59,2.57-2.3s1.83-.57,3.33-3.19c8.36-14.51,18.85-27.81,33.31-42.22,24.75-24.68,51.19-41.73,87.23-56.29,7.24-2.92,7.38-3,17.39-3,10.32,0,23.8,1.43,31.18,3.31,7.88,2,15.38,4.35,16.09,5,1.07,1-.45.83-4.18-.49-8.63-3.06-27.91-5.75-41.54-5.8l-10.5,0-8.25,3.55c-11,4.73-33.76,16.47-41.25,21.24-34.14,21.78-60.43,49.47-77.12,81.21a173.82,173.82,0,0,0-13,31.88c-6.68,21.41-9.08,35.48-10,58.5-.79,20,0,34.58,2.25,42.32s8.3,23.52,11.11,29.09c5.8,11.48,25.42,33.43,39.86,44.58,20.42,15.77,45.73,27.79,69.89,33.18a185.32,185.32,0,0,0,79.22,0c18.38-4.1,41.17-13.69,56.86-23.92,36.5-23.79,62.26-58.84,74.69-101.61,1.33-4.56,2.76-8.17,3.19-8s1.69,3.44,2.82,7.32c1.64,5.68,2,8,1.63,11.94-.37,4.5.56,11.63,4.2,32.25.4,2.27,1.58,13.29,2.63,24.5,2.32,24.93,3,57.13,1.79,85.75-.46,10.93-.83,20.55-.82,21.38s-.31,4.54-.72,8.25-.89,9.3-1.07,12.43a129.1,129.1,0,0,1-1.82,13.49c-.82,4.31-1.49,8.58-1.49,9.5,0,1.72-6.46,29.92-13.82,60.37-6.45,26.64-8.17,35.55-7.64,39.43.35,2.54.17,3.73-.71,4.7-.74.82-1.69,5-2.59,11.31-6.11,43.19-3.21,76.81,9.22,106.77,5.14,12.39,7.56,15.89,9.42,13.64.93-1.13,1.4-4.64,5.75-42.74,3.89-34.13,9.14-67.45,14.27-90.53,4.45-20,7.41-32.63,8.7-37.12,6.46-22.4,9.18-30.4,13-38.25,1-2.06,3.37-7,5.26-10.88,4.47-9.22,13.77-25.09,18.77-32,1.25-1.72,3.21-4.71,4.36-6.66s2.24-3.37,2.43-3.18-1,10.78-2.6,23.53-3.8,29.94-4.84,38.19-2.78,26.9-3.88,41.45l-2,26.46,2.29,19.67c2.26,19.45,3.4,38.53,2.34,39.18-.3.19-1.42-.34-2.49-1.18a4.79,4.79,0,0,0-4.58-1c-2.61.49-2.65.46-2.65-2.06s-.62-3-11.35-11.14c-6.25-4.73-14-10.7-17.27-13.28-5.37-4.25-8.13-5.65-8.13-4.12,0,.31-1.17,8.83-2.59,18.93-5,35.52-8.88,75-10.37,105-.09,1.82-.52,3.43-.94,3.57-1,.33-10.6-17.5-14.51-27-12.51-30.29-16.33-59.51-13.25-101.42.54-7.3,3.09-23.43,4.14-26.19.65-1.72.49-2.29-1.12-3.89-7.71-7.71-14.26-17.77-20.23-31.05-7.05-15.66-7-15.64-7.05-13.5-.05,7.23,6.27,24.29,14.45,39,4.36,7.84,5,11.4,3.43,18.75-.4,1.86-1,5.23-1.41,7.5-1.67,10.22,6.31,1.25-141.36,158.87C210.3,1114.21,191.45,1134,189.66,1134s-2.51-.72-4.66-4.31ZM501.72,948.78c0-1.46-.8-1.95-1.7-1-.6.6.19,2.55,1,2.55C501.42,950.28,501.72,949.61,501.72,948.78Z"/><path id="path27" class="cls-30" d="M170.53,1096.46c-1.11-1.43-6-11.86-6.64-14.18-.29-1-1.13-3.56-1.88-5.62s-2.47-7.3-3.84-11.63-3-8.46-3.57-9.17c-2.63-3.13-5-27.84-4.38-44.83.87-22.4,4.45-37.7,12.72-54.36,6.5-13.09,12.72-21.32,28.5-37.68l8.11-8.42-.46-6.2c-.25-3.42-1.27-19.54-2.26-35.84L195,838.91,189.4,813.2l-5.62-25.72-14-22.66c-7.71-12.46-22.87-36.16-33.71-52.66-12.75-19.42-20-31.19-20.6-33.36-1.73-6.51-5.14-12-17.28-28.15-45.92-60.84-74.95-114.5-84.62-156.37C8.15,470.87,4.63,425.6,5.5,390.78c2.66-106.26,29.08-199,77.34-271.5,10.32-15.51,19.07-26.29,30-37,11.24-11,22.9-21.12,21-18.24-1.12,1.7-1.21,2.37-.49,3.52,1.44,2.31-.93,5.64-11,15.43-6.82,6.65-9.13,9.37-9.14,10.76a9.12,9.12,0,0,1-1.44,4.06c-1.42,2.15-1.42,2.25,0,4.93,1.5,3,1.23,6.15-.82,9.77-.88,1.54-1,8.41-.86,40.48.19,37.94.59,60.07,1.21,66.75.17,1.86.55,7.93.83,13.5s.64,12.63.8,15.69.45,6.93.65,8.62c.6,5.08,2.24,26.21,2.15,27.82a54.63,54.63,0,0,0,.62,6.37c.39,2.68,2,15.85,3.7,29.25s3.51,27.92,4.14,32.25c1,7.16,1.67,11.13,4.16,26.25,2.38,14.38,9,46.8,10.92,53.8.6,2.16,1.41,4.12,1.8,4.36a2.51,2.51,0,0,1,.7,1.89c0,.8.48,1.45,1.06,1.45,1.1,0,1.18.35,2.75,12.38.87,6.61,2,11.25,2.14,8.49,0-.81.8-1.35,2.11-1.5,1.87-.22,2.08-.55,2.27-3.62.34-5.6,2.3-19.36,4-28.25,1.79-9.2,2.34-9.55,4.9-3.16l1.29,3.24,1.63-6.35A226,226,0,0,1,179,382.16c11.86-23.47,21.48-36.84,39.13-54.38s33.67-29.39,56.82-41.86c9.69-5.23,27.83-13.31,28.46-12.69.17.18-6.18,3.6-14.13,7.6-21.2,10.68-34.49,19-49.81,31.36-30.23,24.29-52,54.83-64.09,89.8-10.19,29.52-13.74,55.59-12.25,90,.53,12.22,1.38,16.07,7.05,31.73,5.22,14.42,11.13,26.09,16.82,33.19,6.14,7.66,21.56,22.64,29.59,28.74,26,19.74,55.78,31.86,89,36.15,8.7,1.13,32.56,1.13,41.25,0,33.22-4.29,63.1-16.43,89-36.15,3.44-2.61,10.1-8.47,14.81-13,22.64-21.86,37.91-46.25,47-75A91.34,91.34,0,0,1,501,488c.3-.35,1.25,1.47,2.12,4,1.48,4.38,1.52,5.27.75,13.95-.74,8.34-.67,10.15.73,18.07,2.17,12.25,5,39,5.75,54.56.77,15.68.57,66.32-.3,77.62-1.92,24.87-2.5,30.88-3.94,40.88-.83,5.77-2.33,14.38-3.33,19.12s-1.81,9.3-1.81,10.13c0,1.5-1.77,10.57-4.54,23.25a69,69,0,0,0-1.46,8.25,69.31,69.31,0,0,1-1.46,8.25c-8,36.51-8.58,39.54-8,43.32a6.55,6.55,0,0,1-.61,4.5c-1.23,2-3.77,18.48-5,32.51-.47,5.41-.7,15.87-.5,23.25.75,28.15,6.19,51.36,17.56,74.92,4,8.33,5.48,9.76,5.48,5.37a43.32,43.32,0,0,1,.79-6.56c.43-2.23,1.41-10.47,2.17-18.31,1.44-14.73,5.83-51,7.85-64.88,1.67-11.38,8-43.48,9.07-46.12a71.86,71.86,0,0,0,2.26-9.38,54.63,54.63,0,0,1,2.27-9,60.16,60.16,0,0,0,2.51-8.46A60.85,60.85,0,0,1,532,778.7a47.23,47.23,0,0,0,2.32-7.28,30.32,30.32,0,0,1,1.9-6,44.56,44.56,0,0,0,2.53-6.76,231.37,231.37,0,0,1,9.13-23.25c1-2.06,2.8-5.95,4.07-8.63,3-6.43,10-18.41,19.31-33,2.23-3.51,2.56-3.79,2.22-1.87-.22,1.24-.59,3.94-.82,6s-2.08,16.91-4.12,33c-2.14,16.9-4.56,40.65-5.73,56.25l-2,27,2.35,19.25c1.6,13,2.36,22.58,2.36,29.56v10.32l-1.78-1.67c-1.34-1.26-2.5-1.62-4.69-1.44-2.79.22-2.91.13-3.28-2.37-.34-2.32-1.51-3.44-11.25-10.74-6-4.48-13.83-10.52-17.45-13.42-6.9-5.53-8.76-6-8.85-2.33-.07,3.09-.54,7.14-2.94,25-4.22,31.44-9,81.55-9,94.79,0,6.14-.84,7.34-2.8,4.09a194.27,194.27,0,0,1-23-58.6c-3.09-15.08-3.76-22.42-3.74-41a241.32,241.32,0,0,1,4.06-47.07l1.43-7.93-4.37-4.93a111,111,0,0,1-15.19-23.13L459,774.41a217,217,0,0,1-8.19-25.13,63.14,63.14,0,0,0-1.91-7.12l-1.07-3,0,6c-.05,8.57,2.47,22.47,6.32,34.87,1.09,3.51,2.29,7.64,2.68,9.18l.71,2.81L315.56,943.52C237.51,1026.85,173.24,1095,172.74,1095s-1,.56-1.15,1.25c-.21,1-.37,1.07-1.06.18Z"/><path id="path25" class="cls-31" d="M159.24,1055.33c-2.27-7.2-3.92-11.3-4.56-11.3s-1.68-1.56-2.5-3.47c-1.23-2.85-1.57-5.87-2-17.06-1.29-38,8.06-67,29.64-92,2.32-2.68,7.69-8.46,11.94-12.85l7.73-8-2.27-36.27L195,838.16l-5.54-25.24c-3-13.88-5.81-25.69-6.13-26.25-5.77-10-32.78-52.68-47.14-74.51-15.1-23-19.14-29.63-20.75-34.32-2.23-6.49-5.64-11.92-16.82-26.81-46.19-61.5-75.35-115.5-85-157.5C6.5,463,3.56,406,6.75,361.82c5.38-74.51,23.07-143.22,51.53-200.16C63,152.31,72.07,135.78,73.52,134c.39-.47,4.38-6.42,8.88-13.23a273.6,273.6,0,0,1,22-29.26c2.25-2.61,2.81-3,2.81-1.74,0,2.44-2.11,6-7.57,12.82-2.81,3.5-7.65,10-10.77,14.43-4.7,6.69-5.66,8.56-5.66,11a14.37,14.37,0,0,1-1.49,5.7,8.71,8.71,0,0,0-1,6.2c.26,1.88.76,3.59,1.11,3.81,1.06.65.72,7.18-.56,10.81s-1.35-.57,1.26,65.25C85.23,288.09,93.44,355,108.34,430.16c5.71,28.77,19.78,84.16,30.1,118.5,9.11,30.33,33.44,98.13,38.49,107.25a104.93,104.93,0,0,1,4.51,9.94c1.35,3.4,2.88,6.18,3.4,6.18s1.35,1.61,1.84,3.57a81.22,81.22,0,0,0,3.47,9.5,45.72,45.72,0,0,1,2.57,6.88,21.36,21.36,0,0,0,1.6,4.55,16.41,16.41,0,0,1,1.48,5.79c-.06,1.18,1.44,5.64,3.34,9.9,2.16,4.84,3.28,8.29,3,9.2-.35,1.1.44,2.24,3.28,4.73s4.48,4.84,7.14,10.54c2.92,6.26,4,7.79,7.91,11a75.2,75.2,0,0,0,7.9,5.74c2.83,1.66,3.58,1.82,4.56,1,2.4-2-.24-9.32-14.14-39.31-20-43.24-28.24-63.23-38.46-93.75C167.92,584.35,160,549.74,157,520.16c-.48-4.82-.42-5.17.72-4.23,1.94,1.61,2.25-.38,1.24-7.91-1.05-7.84-1-34.17.09-47.7,4.07-50.19,23.9-95.85,56-128.91,8.1-8.35,20.17-19.3,22.18-20.13.5-.2,3.7-2.51,7.12-5.13s6.44-4.54,6.72-4.26-.12.85-.87,1.28c-4.73,2.64-32,26.32-32,27.77a7.43,7.43,0,0,1-2.11,2.73c-4,3.82-15.49,18.56-21.25,27.38-15.56,23.78-26.35,54.21-30.27,85.34a320.08,320.08,0,0,0-1.9,47.14c.55,10.31.79,11.49,4.44,22.63,6.57,20,14,36,22.06,47.73,9.3,13.48,33.17,32.18,55.16,43.2,61.93,31,136.47,24.14,192.37-17.78A191.68,191.68,0,0,0,479.94,543c6.35-9.65,16.36-30.09,19.55-39.91,1.43-4.42,2.94-7.93,3.35-7.8,1,.31.78,7.88-.58,19.05-1,7.92-1,10.17-.11,16.12,1.23,8.32,3.13,26.67,4.11,39.54.92,12.17.95,70,0,80.61-.39,4.53-.55,8.49-.36,8.8.93,1.51-3.84,40.23-6.92,56.09-4.22,21.74-7.41,37.16-9.74,47a76,76,0,0,0-1.81,9.51,81.8,81.8,0,0,1-2,10c-1.61,6.56-2,10-2,17.68,0,5.26-.31,9.56-.67,9.56-.84,0-6.35-5.55-9.31-9.37-11.23-14.5-20.71-39.65-25.17-66.75a29.17,29.17,0,0,0-1.41-5.8,8.46,8.46,0,0,1-.8-2.63c-.25-2.82-1.57,12.54-1.62,18.93a135,135,0,0,0,.94,14.71l1,8L306,916.25c-77.22,82.45-141,150-141.82,150.14-1.21.21-1.92-1.37-5-11.06ZM249,773.18c1.12-2.08.37-6.67-1.74-10.65l-1.64-3.12-.41,3.75a17.29,17.29,0,0,1-1,4.69c-.84,1.33-7.6,1.17-10.48-.25l-2.4-1.19,2.25,1.89c3.16,2.65,10.75,6.48,12.83,6.48a3.1,3.1,0,0,0,2.6-1.6ZM499.28,957.6a183.64,183.64,0,0,1-20.75-65.07c-1.57-13.08-2.5-35-1.6-37.75a22.63,22.63,0,0,0,.78-6.22c-.09-5.06.77-13.68,2.68-26.9.51-3.51,2.6-10.36,3-9.93.16.17-.53,6-1.54,13-3.68,25.38-4.22,39.28-2.27,58.74,1.21,12.1,4,27,6.49,35.22,3.79,12.3,14.09,35.33,16.06,35.91.51.15,1.1-3,1.61-8.6,1.65-18.1,4-39.71,4.71-43.71.42-2.27,1.61-11,2.65-19.5,2.9-23.59,4.85-36.3,5.69-37.12.52-.51.63.09.33,1.87-.69,4.17-4,29.48-5.25,39.75-3.15,26.49-6.78,71-6.09,74.71.44,2.37-.07,4.79-1,4.79-.29,0-2.77-4.13-5.52-9.18Zm63.1-86.93c-1.62-1.27-2.26-1.39-3.58-.68-2.16,1.16-3.08.44-3.09-2.44,0-2.22-1-3.15-14.41-13.27-7.92-6-15.82-12.16-17.57-13.74l-3.17-2.87,1.43-2.54c.78-1.4,2-5.65,2.62-9.46a51.88,51.88,0,0,1,1.87-8.15,69.67,69.67,0,0,0,2.21-9,109.16,109.16,0,0,1,2.64-10.81c.6-1.65,1.76-5.7,2.56-9s2-7.69,2.7-9.75c8.44-26,10.72-32.27,16-44.29,3.49-8,10.15-20.74,12.47-24,.9-1.24,2.73-4.19,4.07-6.56a21.3,21.3,0,0,1,2.83-4.32c.21,0,.19,1.61-.06,3.57s-1.95,15.37-3.78,29.81-4.25,38.6-5.38,53.69l-2,27.44,2.4,19.81c2.29,18.83,3.21,38.25,1.81,38.14a9.47,9.47,0,0,1-2.53-1.57Z"/><path id="path23" d="M156.7,1036.72a16.37,16.37,0,0,0-2-4.75,5,5,0,0,1-1-2.81c0-.89-.34-1.63-.75-1.63s-.75-1-.75-2.18-.42-2.33-.94-2.5c-1.42-.48-1.12-19.36.48-29.69,4.43-28.62,13.93-46.47,38.88-73l8.94-9.51L197.29,874,195,837.41l-5.56-25.17-5.56-25.18-14.71-23.77c-8.1-13.08-22.76-36-32.59-50.95-19.2-29.2-19.88-30.33-20.73-34.31-1-4.67-3.88-9.34-14.45-23.35-37.76-50-62.91-91.93-77.63-129.27-7.17-18.18-10.58-30.75-13.21-48.75C-.08,403.93,6.08,316.66,27.05,243c2.67-9.35,11.15-35.3,11.89-36.37.29-.41,2.33-5.38,4.55-11s4.18-10.13,4.37-9.94-.09,3.19-.63,6.66c-.8,5.15-.81,7.06,0,10.32,1.47,6.11,1.81,16.12.65,18.89-1.05,2.54-1,7,.08,18.86.39,4.12,1.23,13.74,1.86,21.37,3.06,37,6.67,69.49,10.6,95.63,2.84,18.84,3.52,23.2,5.28,33.75,2.93,17.55,6.83,38.35,9.65,51.37.67,3.1,1.73,8,2.35,10.88,2.63,12.12,9.88,43,10.74,45.75.39,1.24,1.77,6.47,3.06,11.62s3.17,12.25,4.19,15.75,3.32,11.61,5.13,18c8.16,28.85,22.81,73.08,35,105.75,8.67,23.18,9.95,26.11,12.31,28.14s2.7,2.89,3.11,6.38a26.15,26.15,0,0,0,5,12.47l1.74,2.37-.22-6.12c-.12-3.36-.32-8-.44-10.21-.19-3.7,0-4.19,1.62-5,1.51-.75,2.19-.71,3.84.27,2.28,1.35,5.24,6.9,5.57,10.48.3,3.21,4.26,10.08,9,15.62,2.13,2.47,6,7.37,8.63,10.87s6.69,8.74,9,11.63a54.69,54.69,0,0,1,5.52,8c1.13,2.45,5.12,7,25.35,28.7a142.49,142.49,0,0,0,10.85,10.5c2.55,2.11,8.29,7.18,12.75,11.27s9.46,8,11.12,8.78c3.09,1.37,5.81,3.85,6.55,6,.55,1.57,8.71,8.53,9.3,7.94s-5.17-9.44-6.64-9.92-4.35-4.88-4.35-6.85c0-.81-3.16-6.84-7-13.42s-10.33-18-14.38-25.44-7.94-14.35-8.66-15.39c-2.37-3.45-19.95-39.12-26.41-53.61-26.82-60.12-44.82-122.15-47.85-164.95-.44-6.22-1.07-12.54-1.4-14.06-.9-4.16.46-45.44,1.85-56.12,3.13-24.13,9.33-45.86,18.67-65.43,1.92-4,3.82-7.32,4.22-7.32,1,0,1.1-.26-2.56,7.58-9.15,19.62-16.21,46.11-18.76,70.42-2.08,19.85-1.27,48.47,1.63,57.38,7.18,22.09,14.59,39,22.7,52,6.5,10.35,7.28,11.33,13.11,16.65,27.68,25.18,60.22,40.76,98.23,47,6.45,1.06,12.45,1.36,27.38,1.36,20.91,0,27.29-.71,45-5C428.3,609.39,477.6,566,499.45,510.41c1.62-4.13,3-7,3-6.38,0,1-1.25,10-3.73,26a22.71,22.71,0,0,0-.38,5.62c.19.54.87,6.38,1.51,13s1.5,13.58,1.89,15.52c1,5,1.08,71.36.09,85-2,27.24-2.59,33.69-4.33,45s-2.82,17.22-6.31,34.5c-1.4,6.93-2.21,10.68-7.07,32.62-7,31.6-6.72,29.45-5.2,39.57s-9.59-5.65-19.37-27.57c-4.21-9.44-10.11-35.34-12.21-53.61-1.5-13.08-2.62-15-3.85-6.69-.48,3.26-1.12,10.22-1.42,15.48-.41,7-.9,10.1-1.85,11.62-1.27,2-269.3,288.63-277.09,296.27-2.2,2.16-4.33,3.93-4.73,3.93s-1.15-1.6-1.68-3.56Zm344-77.25c-6-10.6-9-17.49-13.3-30.19-3.23-9.59-6.84-23.62-6.66-25.84,0-.43,1,2.76,2.11,7.09,4,15.39,16.93,45.38,19.58,45.38.9,0,1.3-2,2-9.75,1.27-14,3.15-29.79,3.6-30.24s.49,1.64-.76,17.32c-.64,7.93-1.4,18.81-1.69,24.17l-.54,9.75Zm7.88-47.06c0-1.24.18-1.65.37-.93a4.24,4.24,0,0,1,0,2.25c-.2.51-.36-.08-.34-1.32Zm54.22-42.07a4.79,4.79,0,0,0-3.93-.69c-2.29.42-2.44.32-2.44-1.69,0-2.34-1.66-4.16-7.88-8.66-2.06-1.49-4.42-3.23-5.25-3.86s-4.36-3.31-7.87-6-7.56-5.92-9-7.29l-2.63-2.47,2.06-.74c2.39-.86,2.35-.78,4.28-10.6,2.7-13.7,9.37-41.77,10.51-44.23a74.56,74.56,0,0,0,2.28-7.5c.87-3.3,1.88-6.68,2.25-7.5s1.52-4.2,2.54-7.5c3.3-10.62,12.41-33.27,14.34-35.63a90.52,90.52,0,0,0,4.49-8.09c2-3.84,3.71-6.83,3.88-6.65s-1,10.9-2.67,23.84-3.93,36.08-5.07,51.42l-2.08,27.9,2,17.48c1.81,15.46,3,39.65,2,39.58a7.58,7.58,0,0,1-1.88-1.17Z"/></g></g></g></svg>