<svg xmlns="http://www.w3.org/2000/svg" viewBox="0 0 236.64 1254.54"><defs><style>.cls-1{fill:none;}.cls-2{stroke:#000;stroke-miterlimit:10;}</style></defs><title>Body</title><g id="Layer_2" data-name="Layer 2"><g id="Layer_12" data-name="Layer 12"><path class="cls-1" d="M191.67,321.34a331.24,331.24,0,0,0-5.21,32.78,149.18,149.18,0,0,1,13.83,8.79,106.32,106.32,0,0,1,7.86-18.79C206.36,342.43,199,335.07,191.67,321.34Z"/><path class="cls-2" d="M57.16,427.27l.23.23C58.71,424.32,57.64,426.16,57.16,427.27Z"/><path class="cls-2" d="M186.46,354.12a331.24,331.24,0,0,1,5.21-32.78c7.36,13.73,14.69,21.09,16.48,22.78.07-.13.14-.25.2-.38-10.42-37.21,16.21-108.24,16.21-108.24s62-235-101-235-118.9,195.34-114,213c8.2,29.51,41,73,47,131,0,0-2.79-51-10.13-74.15,6.14,12.06,17.85,34,33.76,58.9a73,73,0,0,1-16.8,21.25A147.37,147.37,0,0,0,41.16,364c-12.93,12.92-5.26,41.85,16,63.27.48-1.11,1.55-2.95.23.23,0,0,16,133-5,172s-20,116-20,116,23.77,223.56,23.77,312S44.28,1254,44.28,1254H227.16s-19.41-132-22.5-232.49,5.9-306,5.9-306,1-77-20-116-5-172-5-172c1.39,1.83-1.69-3.88,0,0,16.76-16.75,31.25-48.07,14.73-64.59A149.18,149.18,0,0,0,186.46,354.12ZM82.85,323.68c-10.37-23.82-23.1-57.66-29-91.49,8.3,17.07,21.1,30.7,36.49,38.64C91.5,286.88,90.42,306.15,82.85,323.68Zm94.38-45.18a296.83,296.83,0,0,0-5.34,64.26C153.7,321.42,151,293.1,152.6,270.92a79.37,79.37,0,0,0,25.2-20.67C177.88,259.09,177.71,268.49,177.23,278.5Z"/><path class="cls-2" d="M208.56,344.5c-.07-.25-.13-.51-.21-.76-.06.13-.13.25-.2.38Z"/><path class="cls-2" d="M57.39,427.5l-.23-.23C56.9,427.87,56.82,428.26,57.39,427.5Z"/></g></g></svg>