<svg xmlns="http://www.w3.org/2000/svg" viewBox="0 0 2210.17 6333.14"><title>Daughter</title><g id="Layer_2" data-name="Layer 2"><g id="Layer_39" data-name="Layer 39"><path d="M1306.54,1836V1319.74a12,12,0,0,0-12-12H934.62a12,12,0,0,0-12,12v516c-285.5,6.64-514.9,240.15-514.9,527.25h0a150.48,150.48,0,0,0,81.53,133.78L834.6,3417.09,519.25,4257.44C460.7,4413.47,576,4580,742.69,4580h98.23V6321.14a12,12,0,0,0,12,12h504.21a12,12,0,0,0,12-12V4580h98.34c166.66,0,282-166.48,223.44-322.51l-305.85-815,353.8-942.8A144.49,144.49,0,0,0,1821.44,2369h0C1821.44,2080.63,1592.56,1845.71,1306.54,1836Z"/><path d="M1104.58,0h0Z"/><path d="M2120.66,434.46c-104-104-264.28-117.35-382.76-40.11C1650.4,201.31,1471.35.19,1105.08,0,738.82.19,559.77,201.31,472.26,394.35,353.79,317.11,193.5,330.47,89.51,434.46c-119.35,119.34-119.35,312.83,0,432.17,0,346.23,432.17,509.32,432.17,509.32C334,1188.28,401.32,1020.55,463.79,932.27c198.37,556.14,80.9,825.38,80.9,825.38,311.94,0,259.54-355.05,259.54-355.05,83,75.86,187.66,121.1,301.35,121.1,113.17,0,217.36-44.83,300.21-120.08-2.79,20.91-42.47,354,259.68,354,0,0-117.46-269.24,80.91-825.38,62.47,88.28,129.78,256-57.89,443.68,0,0,432.17-163.09,432.17-509.32C2240,747.29,2240,553.8,2120.66,434.46Z"/></g></g></svg>