<?xml version="1.0" encoding="UTF-8" standalone="no"?>
<!-- Created with Inkscape (http://www.inkscape.org/) -->

<svg
   xmlns:dc="http://purl.org/dc/elements/1.1/"
   xmlns:cc="http://creativecommons.org/ns#"
   xmlns:rdf="http://www.w3.org/1999/02/22-rdf-syntax-ns#"
   xmlns:svg="http://www.w3.org/2000/svg"
   xmlns="http://www.w3.org/2000/svg"
   xmlns:sodipodi="http://sodipodi.sourceforge.net/DTD/sodipodi-0.dtd"
   xmlns:inkscape="http://www.inkscape.org/namespaces/inkscape"
   version="1.1"
   id="svg4831"
   width="816"
   height="1122.24"
   viewBox="0 0 816 1122.24"
   sodipodi:docname="faceBE.svg"
   inkscape:version="0.92.2 (5c3e80d, 2017-08-06)">
  <metadata
     id="metadata4837">
    <rdf:RDF>
      <cc:Work
         rdf:about="">
        <dc:format>image/svg+xml</dc:format>
        <dc:type
           rdf:resource="http://purl.org/dc/dcmitype/StillImage" />
        <dc:title />
      </cc:Work>
    </rdf:RDF>
  </metadata>
  <defs
     id="defs4835" />
  <sodipodi:namedview
     pagecolor="#ffffff"
     bordercolor="#666666"
     borderopacity="1"
     objecttolerance="10"
     gridtolerance="10"
     guidetolerance="10"
     inkscape:pageopacity="0"
     inkscape:pageshadow="2"
     inkscape:window-width="1366"
     inkscape:window-height="705"
     id="namedview4833"
     showgrid="false"
     inkscape:zoom="0.2102937"
     inkscape:cx="99.725703"
     inkscape:cy="1218.2503"
     inkscape:window-x="-8"
     inkscape:window-y="32"
     inkscape:window-maximized="1"
     inkscape:current-layer="svg4831" />
  <g
     id="g159">
    <path
       style="fill:#000000"
       d="m -1841.8625,-37.8521 c 0.106,-274.0375 0.3195,-495.325 0.4745,-491.75 1.4878,34.31074 5.621,71.6541 10.3073,93.12571 5.083,23.28946 15.6101,50.86404 31.6389,82.87429 23.7453,47.42049 60.3572,102.9249 102.0174,154.66035 8.178,10.15591 15.6574,19.44951 16.6209,20.65247 2.214,2.76453 100.7483,272.71268 100.7483,276.01388 0,1.57 0.6885,2.6201 1.931,2.945 2.7936,0.7305 3.3808,-4.0692 3.3365,-27.2717 -0.071,-37.4835 -7.7412,-76.1781 -23.0917,-116.5 -16.0784,-42.234 -41.8238,-88.83229 -68.9237,-124.75 -4.461,-5.9125 -7.7243,-10.75 -7.2519,-10.75 0.4724,0 3.8535,3.33267 7.5135,7.40594 19.8287,22.06751 47.3667,63.64762 55.3702,83.60446 5.8167,14.5043 12.1322,25.5832 18.7088,32.8199 4.5295,4.9842 5.3233,5.4843 6.7826,4.2732 1.5083,-1.2518 1.2037,-2.2046 -3.4866,-10.9051 -2.8266,-5.2434 -8.9015,-15.9541 -13.4997,-23.8015 -8.9855,-15.33477 -11.2151,-21.42431 -15.7766,-43.08851 -2.6886,-12.76909 -6.6177,-39.27571 -6.6038,-44.55063 0.01,-2.83991 0.8444,-1.78275 6.525,8.24224 25.7375,45.42075 79.948,102.324 157.6686,165.5 l 3.6906,3 -13.6363,11 c -66.66,53.7724 -132.6777,117.2035 -151.4332,145.5 -19.0769,28.7813 -27.9032,64.8873 -26.5234,108.5 1.231,38.9085 9.21,78.7126 22.5514,112.5 8.8211,22.3397 20.456,46.6322 34.6043,72.25 l 3.7279,6.75 h -127.0917 l -127.0918,0 z m 255.6968,497.3395 c 0.7642,-0.484 1.5042,-2.1646 1.6444,-3.7347 0.336,-3.762 129.161,-446.8237 130.7447,-449.6642 0.6718,-1.2048 1.624,-2.4824 2.116,-2.839 1.5069,-1.0922 -0.1073,-36.3189 -2.2888,-49.9492 -7.7248,-48.264 -24.631,-105.75313 -51.5483,-175.2882 -5.1341,-13.26281 -10.0799,-25.8353 -10.9907,-27.93886 -1.1728,-2.70873 -1.2783,-3.5836 -0.3614,-2.99847 0.712,0.45441 5.1196,3.34195 9.7946,6.41676 29.1595,19.17864 67.6004,34.97587 102.1921,41.99575 22.3482,4.53525 27.1424,4.37168 44.3079,-1.51171 44.6841,-15.31527 83.7569,-38.23474 116.25,-68.19038 5.0875,-4.6902 9.25,-8.0651 9.25,-7.49978 0,0.56532 -1.1163,7.4594 -2.4807,15.32018 -6.3614,36.64952 -9.0061,70.65514 -8.228,105.79231 0.9989,45.10654 7.7367,79.3285 21.2243,107.8011 4.8378,10.2127 14.843,25.8167 21.2219,33.0973 l 3.8536,4.3983 -1.7043,9.6017 c -5.2584,29.6245 -7.255,66.1391 -4.9621,90.7477 3.4887,37.4419 13.8701,69.6829 33.4327,103.8306 l 5.1426,8.9767 0.676,-11.4767 c 2.6898,-45.6648 7.6821,-95.0528 14.402,-142.4767 2.5705,-18.1408 3.1361,-21.1192 3.8708,-20.3846 1.0535,1.0535 125.5512,406.545 125.5512,408.9228 0,1.8875 0.6164,2.8897 2,3.2515 1.1,0.2877 2,0.2935 2,0.013 0,-1.7416 12.0026,-59.91 16.5698,-80.3025 6.21667,-27.7574 10.56326,-44.8198 16.94064,-66.5 5.15512,-17.525 6.48956,-26.2603 6.48956,-42.4806 0,-46.9669 -19.64879,-100.3513 -48.4966,-131.7618 -6.612,-7.1994 -26.5514,-24.1793 -54.7534,-46.6267 -8.1125,-6.4572 -14.75,-12.0777 -14.75,-12.4901 0,-3.6779 73.4602,-363.86261 74.9848,-367.66013 1.1084,-2.76063 2.0152,-5.86309 2.0152,-6.89437 0,-1.03128 3.3484,-11.82258 7.4408,-23.98068 9.628,-28.60366 18.61013,-57.58695 28.07922,-90.60562 8.53401,-29.75805 9.09401,-33.40738 10.35813,-67.5 0.45481,-12.26593 0.88346,195.57868 0.9688,469.75 l 0.15305,491.7498 -307.25,-0.015 c -177.2719,-0.01 -306.6622,-0.3876 -305.8605,-0.8952 z m 462.1105,-423.8289 c -11.825,-8.988 -22.165,-16.7363 -22.9778,-17.2184 -1.2789,-0.7587 -1.0271,-3.3454 1.8696,-19.2095 9.0527,-49.5777 21.3688,-94.1959 34.5959,-125.3327 5.5613,-13.09139 10.3195,-21.99094 19.4336,-36.34761 6.11,-9.6245 14.4112,-24.15699 21.5078,-37.65239 1.4461,-2.75 2.4067,-4.1 2.1346,-3 -0.2721,1.1 -2.0807,7.85 -4.0191,15 -7.5305,27.77694 -16.1111,69.92774 -20.4589,100.5 -6.2,43.5974 -8.4411,72.2674 -10.3611,132.5511 l -0.2246,7.0512 z m -341.6539,-53.8629 c -71.9009,-110.34952 -123.2036,-223.67546 -145.7232,-321.8977 -3.4818,-15.18625 -8.3529,-41.6697 -9.1045,-49.5 l -0.624,-6.5 5.9471,14.65133 c 11.5693,28.50262 27.4949,56.20039 44.7612,77.84867 8.0776,10.12758 30.3897,32.60486 39.0999,39.38927 5.3516,4.16842 6.6096,5.81083 9.1692,11.971 3.0263,7.28314 66.4626,245.13663 65.8605,246.94283 -0.1819,0.5458 -4.4057,-5.2616 -9.3862,-12.9054 z m 254.7284,-145.60047 -15.3839,-128.32745 7.2487,-8.98489 c 13.5755,-16.82706 26.8346,-38.47252 34.6003,-56.48489 7.8523,-18.21321 10.2405,-25.96949 18.1669,-59 0.7499,-3.12526 1.3033,-0.40711 4.7841,23.5 4.5023,30.92218 5.6453,46.56593 6.2106,85 0.909,61.80692 -2.8423,111.58452 -11.7189,155.5 -2.8543,14.12088 -25.5154,107.3431 -28.274,116.3123 -0.1374,0.4468 -7.1726,-56.935 -15.6338,-127.51507 z m -191.8772,-107.71396 c -3.4664,-0.43373 -6.7907,-1.2767 -7.3873,-1.87326 -0.7795,-0.77953 -0.6041,-2.99768 0.6236,-7.88525 3.9421,-15.6935 15.0891,-47.32476 16.6776,-47.32476 1.5601,0 28.3228,54.96596 27.2736,56.01524 -1.2839,1.28388 -29.0818,2.08223 -37.1875,1.06803 z m 35.9531,-13.16388 c -2.701,-5.73067 -8.7727,-18.42756 -13.4927,-28.21533 -5.5375,-11.48299 -8.1519,-17.92701 -7.3698,-18.16542 1.4888,-0.45382 31.5277,-2.45055 41.4117,-2.75268 3.9598,-0.12105 7.51,0.0903 7.8894,0.46968 0.3793,0.37936 -0.545,4.18954 -2.054,8.46706 -3.379,9.57786 -19.5271,48.43287 -20.654,49.69669 -0.4555,0.51086 -3.0019,-3.71046 -5.7306,-9.5 z m 11.3748,4.47151 c 1.4436,-3.24 6.4269,-14.8909 11.0741,-25.8909 4.6472,-11 8.8789,-21.0125 9.4036,-22.25 0.5248,-1.2375 1.3793,-2.25 1.8987,-2.25 3.7546,0 29.9614,34.3087 28.7059,37.58041 -1.3528,3.52534 -37.3939,17.34465 -47.4072,18.17745 l -6.2997,0.52394 z m -78.647,1.62487 c -10.7927,-3.62678 -29.4488,-11.79345 -30.8797,-13.51754 -1.1823,-1.42465 2.3752,-9.39031 10.0478,-22.49823 6.6758,-11.40477 6.157,-11.15275 10.1278,-4.91973 5.3108,8.3362 17.7722,30.62855 19.9125,35.62178 3.6269,8.46115 2.3502,9.19784 -9.2084,5.31372 z m 12.3425,-7.26577 c -7.1936,-12.21979 -24.2207,-42.47507 -24.2207,-43.03756 0,-0.56687 23.0612,-1.80567 37.2391,-2.00041 5.8199,-0.0799 10.1737,0.30074 10.8189,0.94597 0.773,0.77298 -1.5636,8.36156 -8.2246,26.71087 -5.1174,14.09712 -9.6309,25.63113 -10.0302,25.63113 -0.3992,0 -2.9113,-3.7125 -5.5825,-8.25 z m -54.6302,-17.00682 c -5.3987,-9.42634 -17.5905,-34.18216 -17.5905,-35.71796 0,-1.55283 1.7278,-1.30902 16.6934,2.35555 7.5936,1.85942 16.0781,3.68913 18.8544,4.06603 8.0252,1.08946 8.1088,1.29617 3.9083,9.66347 -4.9649,9.88962 -14.0704,25.32471 -15.7735,26.7382 -1.1047,0.91678 -2.2885,-0.46396 -6.0921,-7.10529 z m 166.2907,-6.82539 c -13.2143,-16.57183 -19.8812,-25.34988 -19.8812,-26.1769 0,-0.31755 6.3749,-2.66909 14.1665,-5.22562 7.7916,-2.55654 19.6724,-6.86833 26.4017,-9.58176 6.7294,-2.71343 12.7783,-4.93351 13.4419,-4.93351 0.8162,0 0.9845,0.88991 0.52,2.75 -0.6107,2.44546 -16.3248,41.77172 -21.2449,53.16779 l -1.9073,4.4178 z m -181.0261,2.79317 c -13.9538,-10.0342 -25.8551,-19.17287 -25.8551,-19.85347 0,-0.37543 2.2902,-3.42347 5.0894,-6.77342 6.0302,-7.21681 8.9219,-8.3585 12.5539,-4.95637 2.3467,2.19825 18.3567,33.43113 18.3567,35.81095 0,2.16514 -2.9843,0.92148 -10.1449,-4.22769 z m 201.1449,1.55372 c 0,-1.80434 20.6852,-54.17848 21.9343,-55.53687 0.6731,-0.73199 18.0657,17.34573 18.0657,18.77735 0,1.21182 -26.3319,28.57688 -32.3375,33.60625 -6.3056,5.28069 -7.6625,5.83908 -7.6625,3.15327 z m -237.3715,-32.51468 c -8.6586,-9.63921 -26.6285,-31.96994 -26.6285,-33.09053 0,-0.48922 1.0125,-0.23649 2.25,0.56162 5.9162,3.81557 29.9139,17.82527 34.3018,20.02512 2.7215,1.36441 6.6357,3.02708 8.6982,3.69482 2.0625,0.66774 3.75,1.55328 3.75,1.96787 0,0.79718 -14.4827,14.0911 -15.3511,14.0911 -0.2794,0 -3.4386,-3.2625 -7.0204,-7.25 z m 271.3106,-16.30692 c -4.0915,-4.70631 -7.54,-8.86881 -7.6634,-9.25 -0.1233,-0.3812 2.6283,-2.63727 6.1147,-5.01351 3.4864,-2.37623 12.1355,-9.01373 19.2204,-14.75 7.0848,-5.73626 13.2695,-10.42957 13.7437,-10.42957 1.5367,0 -0.3728,5.23734 -6.7642,18.55198 -5.0109,10.43887 -15.9831,29.44802 -16.9975,29.44802 -0.118,0 -3.5622,-3.85062 -7.6537,-8.55692 z m -368.6621,-104.19308 c 0.3075,-14.47953 1.257,-31.2211 2.1695,-38.25 1.6718,-12.87881 5.9932,-35.77304 6.9289,-36.70875 0.2905,-0.29052 2.9124,1.49609 5.8264,3.97025 17.6362,14.97421 42.9547,26.80557 69.1858,32.33059 14.999,3.15923 44.8375,4.34828 62.7313,2.49981 11.0391,-1.14035 32.5563,-5.04907 40.0802,-7.28076 l 3.699,-1.0972 -5.1035,-4.60697 c -34.1862,-30.86015 -78.0083,-54.5324 -114.2946,-61.74078 -10.3603,-2.0581 -39.152,-2.46995 -46.25,-0.66157 -2.3492,0.59851 -4.25,0.68369 -4.25,0.19045 0,-0.49078 1.869,-5.05545 4.1534,-10.1437 29.2159,-65.07546 85.001,-116.15925 163.6853,-149.89056 l 11.3387,-4.86081 h 13.1875 c 42.661,0 83.1897,13.64802 118.3005,39.8376 11.6562,8.69456 31.0065,28.19454 40.3452,40.65736 15.4528,20.62244 28.8726,45.75393 39.5173,74.00504 l 2.2608,6 -14.6444,0.10835 c -24.4396,0.18082 -45.6918,5.85064 -73.1443,19.51393 -22.3182,11.10791 -48.8254,29.14019 -64.6717,43.99479 l -5.1717,4.84802 4.0354,1.08661 c 35.4656,9.54989 78.3701,10.90816 108.0828,3.42169 19.2964,-4.86196 36.7986,-12.50479 51.961,-22.69024 l 9.7357,-6.54009 4.4521,14.12847 c 9.9405,31.5464 21.2532,74.28167 19.9975,75.54356 -0.3201,0.3217 -7.1833,0.71002 -15.2516,0.86293 -32.4368,0.61475 -430.0087,7.22222 -434.5544,7.2221 l -4.8849,-1.2e-4 z m -217.1261,-381.5 -0.1509,-257.75 238.75,0.1263 238.75,0.1264 -30.5,1.8156 c -59.5409,3.5443 -85.2699,6.0021 -114.8374,10.9702 -126.3119,21.2233 -207.2001,86.04648 -267.1788,214.11469 -36.8901,78.76885 -59.0007,173.01517 -63.8938,272.34681 -0.4335,8.8 -0.8561,-99.9875 -0.9391,-241.75 z m 867.51714,236 c -3.12237,-102.0052 -21.72084,-199.29145 -50.61294,-264.75 -27.3841,-62.04206 -74.9888,-122.84223 -126.5551,-161.635 -50.9007,-38.2919 -110.8154,-61.1656 -173.5,-66.2372 -6.2658,-0.5069 62.5899,-0.9056 170.75,-0.9887 l 181.25,-0.1391 v 257.5 c 0,141.625 -0.15334,257.5 -0.34075,257.5 -0.18741,0 -0.63345,-9.5625 -0.99121,-21.25 z"
       id="path209"
       inkscape:connector-curvature="0" />
  </g>
</svg>
