<svg xmlns="http://www.w3.org/2000/svg" viewBox="0 0 500.79 1107.31"><defs><style>.cls-1{fill:red;}</style></defs><title>HandL</title><g id="Layer_2" data-name="Layer 2"><g id="Layer_1-2" data-name="Layer 1"><path d="M425.4,154s90,176.67,73.33,366.67C482.09,710.39,229.14,963.26,220.11,1070.2c.83,1.78-4.71,45.13-113,35.8-13.29-1.14-93.34-14-73.34-60.33,0,0,38.34-350.34-6.66-428s-35-317.67,38.33-391c0,0-43.33,200,46.67,308.33,0,0,93.33-307.33-36.67-535,0,0,166.67,70.67,161.67,507.33,0,0,7.45,38.34,23.73-1.66,0,0,44.6-368-112.07-505.67,0,0,230,87.33,196.67,485.67,0,0,16.67,36.66,31.67-1.67,0,0,52.66-376.33-157-484,0,0,257,47.33,217,469,0,0,1.66,53.33,21.66,1.67C458.73,470.67,477.07,315,425.4,154Z"/><path class="cls-1" d="M90.4,582.33s-69.91-225.21-50-275c0,0-28.8,146.67-3.57,275C36.83,582.33,47.07,485.67,90.4,582.33Z"/><path class="cls-1" d="M143.73,525.67s46.67-310,13.34-383.34c0,0,76.66,140,50,375C207.07,517.33,182.07,429,143.73,525.67Z"/><path class="cls-1" d="M280.4,499c6.4,6.66,12.19-287.51-46.67-418.33,0,0,100,78.33,93.34,418.33C327.07,499,307.07,364,280.4,499Z"/><path class="cls-1" d="M397.07,499S430.4,240.67,338.73,97.33c0,0,110,65,90,401.67C428.73,499,423.73,364,397.07,499Z"/><path class="cls-1" d="M458.73,525.67s26.65-120.57,15-200c0,0,25,103.33,16.67,200C490.4,525.67,482.07,440.67,458.73,525.67Z"/></g></g></svg>