<svg xmlns="http://www.w3.org/2000/svg" viewBox="0 0 500.79 1107.31"><defs><style>.cls-1{fill:red;}</style></defs><title>HandR</title><g id="Layer_2" data-name="Layer 2"><g id="Layer_1-2" data-name="Layer 1"><path d="M75.39,154s-90,176.67-73.33,366.67C18.7,710.39,271.65,963.26,280.69,1070.2c-.84,1.78,4.7,45.13,113,35.8,13.28-1.14,93.33-14,73.33-60.33,0,0-38.33-350.34,6.67-428s35-317.67-38.34-391c0,0,43.34,200-46.66,308.33,0,0-93.34-307.33,36.66-535,0,0-166.66,70.67-161.66,507.33,0,0-7.46,38.34-23.73-1.66,0,0-44.61-368,112.06-505.67,0,0-230,87.33-196.67,485.67,0,0-16.66,36.66-31.66-1.67,0,0-52.67-376.33,157-484,0,0-257,47.33-217,469,0,0-1.67,53.33-21.67,1.67C42.06,470.67,23.73,315,75.39,154Z"/><path class="cls-1" d="M410.39,582.33s69.91-225.21,50-275c0,0,28.8,146.67,3.57,275C464,582.33,453.73,485.67,410.39,582.33Z"/><path class="cls-1" d="M357.06,525.67s-46.67-310-13.33-383.34c0,0-76.67,140-50,375C293.73,517.33,318.73,429,357.06,525.67Z"/><path class="cls-1" d="M220.39,499c-6.4,6.66-12.18-287.51,46.67-418.33,0,0-100,78.33-93.33,418.33C173.73,499,193.73,364,220.39,499Z"/><path class="cls-1" d="M103.73,499S70.39,240.67,162.06,97.33c0,0-110,65-90,401.67C72.06,499,77.06,364,103.73,499Z"/><path class="cls-1" d="M42.06,525.67s-26.65-120.57-15-200c0,0-25,103.33-16.67,200C10.39,525.67,18.73,440.67,42.06,525.67Z"/></g></g></svg>