<svg xmlns="http://www.w3.org/2000/svg" viewBox="0 0 235.64 412"><defs><style>.cls-1{fill:none;stroke:#000;stroke-miterlimit:10;}</style></defs><title>HeadBase</title><g id="Layer_2" data-name="Layer 2"><g id="Layer_19" data-name="Layer 19"><ellipse class="cls-1" cx="121.06" cy="186" rx="78" ry="92"/><path d="M98.06,356s-115-211,11-244c0,0,75.67-3,67.67,166,0,0-16.67,76,8.33,134,0,0-11-93,39-177,0,0,62-235-101-235S4.16,195.34,9.06,213c8.2,29.51,41,73,47,131,0,0-4-73-15-84A686.55,686.55,0,0,0,98.06,356Z"/><path d="M224.06,235s-27,72-16,109c0,0-23.33-20.36-31.33-66"/></g></g></svg>