<svg xmlns="http://www.w3.org/2000/svg" viewBox="0 0 232.4 1254.53"><defs><style>.cls-1{stroke:#000;stroke-miterlimit:10;}</style></defs><title>MikaneL</title><g id="Layer_2" data-name="Layer 2"><g id="Layer_18" data-name="Layer 18"><path class="cls-1" d="M119.9,213.49c8.2,29.5,41,73,47,131,0,0-2.79-51-10.13-74.15,6.14,12.05,17.85,34,33.75,58.9a73,73,0,0,1-16.79,21.25s-39.5,18.5-47,43.5c0,0-10,4.5-15,85.5,0,0-23,119-46,150-17.89,24.1-31.54,73-41.43,113.77-9.32,5.32-17.23,15-21.21,27.27-7.35,22.73,1.49,46,19.75,51.86s39-7.74,46.38-30.48c4-12.55,3.17-25.23-1.49-35.08,16.93-41.9,44.07-111.64,41.17-121.34,0,0,42.09-185.91,58.83-208,0,0,16,133-5,172s-20,116-20,116,23.77,223.55,23.77,312S154.62,1254,154.62,1254H231.9V.51C71.28,2.11,115,195.9,119.9,213.49Zm44.29,18.69c8.3,17.07,21.1,30.69,36.49,38.63,1.16,16.05.08,35.33-7.49,52.85C182.81,299.85,170.09,266,164.19,232.18Zm63.92,223.57c-52.38-36.82-42.7-62.39-42.7-62.39s8.25-16.89,20.81-16.89,21.89,16.89,21.89,16.89Z"/></g></g></svg>