<svg xmlns="http://www.w3.org/2000/svg" viewBox="0 0 1432.71 6333.14"><title>Mother</title><g id="Layer_2" data-name="Layer 2"><g id="Layer_39" data-name="Layer 39"><path d="M715.86,0h0Z"/><path d="M1432.71,743.85S1420.72.35,716.36,0C12,.35,0,743.85,0,743.85c299.94,683.86,156,1013.8,156,1013.8,311.94,0,259.54-355.05,259.54-355.05,83,75.86,187.66,121.1,301.35,121.1,113.17,0,217.35-44.83,300.21-120.08-2.79,20.91-42.47,354,259.67,354C1276.74,1757.65,1132.77,1427.71,1432.71,743.85Z"/><path d="M917.82,1836V1319.74a12,12,0,0,0-12-12H545.89a12,12,0,0,0-12,12v516C248.4,1842.42,19,2075.93,19,2363h0a150.46,150.46,0,0,0,81.53,133.78l345.35,920.28L130.52,4257.44C72,4413.47,187.31,4580,354,4580h98.22V6321.14a12,12,0,0,0,12,12H968.4a12,12,0,0,0,12-12V4580h98.35c166.65,0,282-166.48,223.44-322.51l-305.86-815,353.81-942.8A144.5,144.5,0,0,0,1432.71,2369h0C1432.71,2080.63,1203.84,1845.71,917.82,1836Z"/></g></g></svg>